<svg width="326" height="571" viewBox="0 0 326 571" fill="none" xmlns="http://www.w3.org/2000/svg">
<path d="M244.697 269.739C244.142 270.456 243.812 271.322 243.749 272.226C243.686 273.131 243.893 274.033 244.342 274.821C244.792 275.608 245.465 276.244 246.276 276.649C247.087 277.054 248 277.21 248.899 277.097C249.799 276.983 250.644 276.606 251.33 276.012C252.015 275.419 252.509 274.635 252.749 273.761C252.989 272.887 252.965 271.961 252.68 271.101C252.394 270.24 251.86 269.484 251.145 268.927C250.67 268.552 250.126 268.276 249.543 268.114C248.96 267.952 248.351 267.907 247.751 267.983C247.151 268.059 246.572 268.253 246.047 268.554C245.523 268.856 245.064 269.259 244.697 269.739Z" fill="#BA68C8"/>
<path d="M234.185 289.845C233.63 290.562 233.301 291.428 233.238 292.332C233.175 293.237 233.381 294.139 233.831 294.927C234.28 295.714 234.953 296.35 235.764 296.755C236.575 297.16 237.488 297.316 238.388 297.203C239.287 297.089 240.133 296.712 240.818 296.118C241.503 295.525 241.997 294.741 242.237 293.867C242.478 292.993 242.454 292.067 242.168 291.207C241.883 290.346 241.349 289.59 240.633 289.033C240.159 288.658 239.614 288.382 239.031 288.22C238.448 288.058 237.839 288.013 237.239 288.089C236.639 288.165 236.06 288.359 235.536 288.66C235.011 288.962 234.552 289.365 234.185 289.845Z" fill="#BA68C8"/>
<path d="M227.425 268.035C226.945 268.63 226.654 269.355 226.59 270.117C226.525 270.879 226.691 271.642 227.064 272.309C227.438 272.976 228.002 273.516 228.685 273.859C229.369 274.202 230.139 274.333 230.897 274.234C231.655 274.136 232.366 273.812 232.939 273.306C233.511 272.8 233.919 272.133 234.11 271.393C234.3 270.653 234.265 269.872 234.008 269.153C233.751 268.433 233.284 267.806 232.668 267.354C231.874 266.771 230.886 266.517 229.91 266.644C228.934 266.771 228.044 267.269 227.425 268.035Z" fill="#BA68C8"/>
<path d="M212.533 274.903C212.061 275.496 211.777 276.215 211.717 276.97C211.657 277.725 211.824 278.48 212.196 279.139C212.568 279.799 213.128 280.332 213.806 280.67C214.483 281.009 215.245 281.138 215.996 281.04C216.747 280.943 217.451 280.623 218.019 280.123C218.587 279.622 218.993 278.963 219.184 278.231C219.375 277.498 219.343 276.725 219.092 276.011C218.841 275.297 218.383 274.674 217.775 274.222C216.986 273.626 215.995 273.364 215.015 273.491C214.034 273.619 213.143 274.126 212.533 274.903Z" fill="#BA68C8"/>
<path d="M208.261 260.433C207.781 261.028 207.49 261.753 207.426 262.515C207.361 263.277 207.527 264.04 207.9 264.707C208.274 265.374 208.838 265.914 209.521 266.257C210.204 266.6 210.975 266.731 211.733 266.632C212.491 266.534 213.202 266.21 213.775 265.704C214.347 265.198 214.755 264.531 214.946 263.791C215.136 263.051 215.101 262.27 214.844 261.55C214.587 260.831 214.12 260.204 213.504 259.752C212.712 259.163 211.723 258.904 210.745 259.032C209.766 259.159 208.876 259.662 208.261 260.433Z" fill="#BA68C8"/>
<path d="M306.013 409.171C310.155 375.538 299.617 342.142 279.327 315.299C273.875 308.067 267.73 301.386 260.978 295.35C254.275 288.91 246.573 283.598 238.171 279.622C238.171 279.622 238.014 279.622 238.171 279.779C244.227 285.022 250.833 289.426 256.783 294.747C262.686 299.973 268.181 305.643 273.219 311.708C283.565 324.14 291.56 338.353 296.812 353.65C302.138 369.406 304.146 386.093 302.712 402.663C301.277 419.233 296.43 435.327 288.476 449.933C283.911 458.082 278.277 465.585 271.725 472.241C264.989 478.74 257.363 484.247 249.076 488.599C247.53 489.49 248.631 492.321 250.361 491.98C258.933 490.224 266.482 484.274 272.669 478.323C279.052 472.142 284.636 465.184 289.289 457.614C298.289 442.86 303.994 426.335 306.013 409.171Z" fill="#37474F"/>
<path d="M297.413 561.709C279.457 572.064 236.256 575 209.492 559.088C179.32 541.158 175.833 514.524 189.963 508.338C210.043 499.425 219.847 531.93 248.262 543.831C282.052 558.013 297.413 550.464 297.413 550.464V561.709Z" fill="#BA68C8"/>
<path opacity="0.2" d="M297.413 561.709C279.457 572.064 236.256 575 209.492 559.088C179.32 541.158 175.833 514.524 189.963 508.338C210.043 499.425 219.847 531.93 248.262 543.831C282.052 558.013 297.413 550.464 297.413 550.464V561.709Z" fill="white"/>
<path d="M268.705 562.26C233.867 562.26 202.489 539.978 193.969 520.082C193.845 519.775 193.843 519.432 193.966 519.124C194.088 518.817 194.324 518.568 194.625 518.43C194.774 518.366 194.935 518.331 195.098 518.329C195.261 518.327 195.423 518.358 195.574 518.419C195.725 518.479 195.863 518.57 195.979 518.684C196.095 518.799 196.187 518.935 196.25 519.086C206.421 542.835 250.801 568.892 291.275 556.388C291.592 556.289 291.934 556.319 292.229 556.471C292.523 556.623 292.746 556.885 292.848 557.201C292.939 557.52 292.902 557.863 292.746 558.156C292.59 558.449 292.326 558.671 292.009 558.773C284.461 561.099 276.604 562.275 268.705 562.26Z" fill="white"/>
<path d="M260.866 505.664C260.9 505.823 260.873 505.989 260.79 506.13C260.708 506.271 260.576 506.375 260.421 506.424C231.245 515.232 200.129 502.099 181.176 472.975C181.084 472.828 181.051 472.651 181.086 472.48C181.12 472.309 181.218 472.158 181.36 472.058C181.51 471.968 181.689 471.94 181.86 471.979C182.031 472.018 182.18 472.121 182.277 472.267C200.915 500.893 231.428 513.79 260.027 505.166C260.198 505.116 260.381 505.135 260.537 505.218C260.694 505.302 260.812 505.443 260.866 505.611V505.664Z" fill="#455A64"/>
<path d="M202.802 471.691C202.828 472.04 202.828 472.39 202.802 472.739C202.734 475.165 202.31 477.567 201.544 479.869C199.918 484.228 199.707 488.989 200.941 493.474C200.967 493.578 200.963 493.687 200.931 493.789C200.899 493.891 200.839 493.981 200.758 494.051C200.668 494.11 200.563 494.141 200.456 494.141C200.349 494.141 200.244 494.11 200.155 494.051C194.676 490.565 186.681 480.001 190.22 471.429C192.474 465.976 196.013 466.002 197.455 466.186C198.79 466.473 200.01 467.149 200.961 468.129C201.913 469.109 202.554 470.348 202.802 471.691ZM199.421 491.692C198.821 487.63 199.216 483.483 200.574 479.607C201.312 477.398 201.727 475.094 201.806 472.766C201.758 471.488 201.29 470.261 200.476 469.275C199.661 468.29 198.544 467.6 197.297 467.313C194.807 466.867 192.579 468.519 191.19 471.848C187.965 479.712 195.069 488.782 199.578 492.347L199.421 491.692Z" fill="#455A64"/>
<path d="M201.045 493.527C201.081 493.595 201.101 493.672 201.101 493.75C201.101 493.827 201.081 493.904 201.045 493.972C200.947 494.069 200.815 494.122 200.678 494.122C200.541 494.122 200.409 494.069 200.311 493.972C195.776 489.857 193.364 479.109 195.566 472.661C195.608 472.529 195.701 472.419 195.824 472.355C195.946 472.291 196.089 472.279 196.221 472.32C196.355 472.367 196.465 472.465 196.529 472.592C196.592 472.719 196.604 472.866 196.562 473.001C194.282 479.66 197.113 489.673 201.019 493.186C201.059 493.295 201.068 493.413 201.045 493.527Z" fill="#455A64"/>
<path d="M197.194 490.014C197.244 490.168 197.244 490.333 197.194 490.486C197.097 490.602 196.963 490.681 196.815 490.709C196.667 490.738 196.514 490.715 196.381 490.643C193.078 488.546 183.274 491.43 177.507 493.868C175.811 494.636 173.96 495 172.1 494.932C170.24 494.864 168.42 494.365 166.785 493.474C165.762 492.803 164.925 491.884 164.352 490.802C163.779 489.721 163.489 488.512 163.509 487.288C163.498 486.075 163.849 484.886 164.516 483.873C165.184 482.859 166.138 482.068 167.257 481.6C173.208 478.664 185.607 480.499 197.062 489.673C197.146 489.768 197.192 489.889 197.194 490.014ZM164.767 488.625C164.902 489.418 165.206 490.172 165.659 490.837C166.111 491.502 166.701 492.061 167.388 492.478C168.858 493.273 170.492 493.715 172.162 493.77C173.831 493.824 175.491 493.49 177.009 492.793C177.533 492.583 187.678 488.31 193.891 488.756C183.589 481.468 172.92 480.079 167.677 482.648C166.761 483.023 165.978 483.662 165.427 484.484C164.876 485.305 164.583 486.273 164.583 487.262C164.59 487.722 164.651 488.18 164.767 488.625Z" fill="#455A64"/>
<path d="M197.194 490.014C197.244 490.149 197.244 490.298 197.194 490.434C197.112 490.567 196.982 490.664 196.83 490.703C196.678 490.742 196.517 490.721 196.381 490.643C187.311 485.4 173.785 486.108 170.167 487.262C170.018 487.312 169.855 487.302 169.712 487.233C169.57 487.165 169.461 487.043 169.407 486.895C169.383 486.821 169.374 486.743 169.381 486.665C169.388 486.588 169.411 486.512 169.447 486.444C169.484 486.375 169.534 486.315 169.595 486.266C169.656 486.217 169.726 486.182 169.8 486.161C173.549 484.955 187.573 484.195 196.958 489.621C197.081 489.719 197.165 489.859 197.194 490.014Z" fill="#455A64"/>
<path d="M187.993 451.06C186.653 457.86 183.824 464.279 179.709 469.856C168.962 473.237 164.269 473.998 155.724 472.661C153.672 472.223 151.745 471.327 150.088 470.039C149.498 469.522 149.119 468.807 149.022 468.029C148.926 467.251 149.118 466.464 149.563 465.819C150.463 465.003 151.626 464.538 152.84 464.508L163.562 463.04C159.549 462.852 155.652 461.643 152.237 459.528C150.979 458.741 149.616 457.457 150.062 456.041C150.507 454.626 152.84 454.154 154.57 454.416C159.062 455.044 163.419 456.408 167.468 458.453C164.551 454.588 162.26 450.289 160.678 445.713C160.459 445.273 160.345 444.789 160.345 444.297C160.345 443.806 160.459 443.321 160.678 442.882C161.674 441.519 163.85 442.436 165.108 443.537C168.026 446.067 170.414 449.149 172.134 452.607C170.898 447.56 170.826 442.298 171.924 437.22C171.964 436.817 172.085 436.426 172.279 436.07C172.472 435.715 172.735 435.401 173.051 435.149C174.414 434.31 176.039 435.83 176.747 437.272C178.598 441.142 179.548 445.381 179.526 449.671C180.234 447.05 182.541 440.942 184.769 441.125C186.997 441.309 188.937 446.657 187.993 451.06Z" fill="#BA68C8"/>
<path opacity="0.15" d="M187.993 451.06C186.653 457.86 183.824 464.279 179.709 469.856C168.962 473.237 164.269 473.998 155.724 472.661C153.672 472.223 151.745 471.327 150.088 470.039C149.498 469.522 149.119 468.807 149.022 468.029C148.926 467.251 149.118 466.464 149.563 465.819C150.463 465.003 151.626 464.538 152.84 464.508L163.562 463.04C159.549 462.852 155.652 461.643 152.237 459.528C150.979 458.741 149.616 457.457 150.062 456.041C150.507 454.626 152.84 454.154 154.57 454.416C159.062 455.044 163.419 456.408 167.468 458.453C164.551 454.588 162.26 450.289 160.678 445.713C160.459 445.273 160.345 444.789 160.345 444.297C160.345 443.806 160.459 443.321 160.678 442.882C161.674 441.519 163.85 442.436 165.108 443.537C168.026 446.067 170.414 449.149 172.134 452.607C170.898 447.56 170.826 442.298 171.924 437.22C171.964 436.817 172.085 436.426 172.279 436.07C172.472 435.715 172.735 435.401 173.051 435.149C174.414 434.31 176.039 435.83 176.747 437.272C178.598 441.142 179.548 445.381 179.526 449.671C180.234 447.05 182.541 440.942 184.769 441.125C186.997 441.309 188.937 446.657 187.993 451.06Z" fill="black"/>
<path d="M226.609 383.953C237.695 389.684 246.652 398.816 252.168 410.01C256.749 418.786 259.681 428.329 260.818 438.163C261.024 440.017 261.112 441.882 261.081 443.747C260.95 444.888 260.95 446.04 261.081 447.181C261.081 447.653 262.051 448.125 262.444 447.653C264.279 445.372 263.807 441.414 263.571 438.688C263.132 434.011 262.255 429.385 260.95 424.873C258.148 413.939 252.609 403.898 244.854 395.697C239.647 390.527 233.545 386.344 226.845 383.35C226.557 383.35 226.583 383.796 226.845 383.901L226.609 383.953Z" fill="#455A64"/>
<path d="M243.282 397.558C247.337 386.103 247.722 373.67 244.383 361.986C238.904 341.88 231.092 333.308 222.599 333.308C220.282 333.211 217.992 333.838 216.047 335.101C214.102 336.365 212.599 338.203 211.746 340.359C211.746 340.359 202.781 336.925 199.164 340.936C195.546 344.947 197.04 354.436 197.04 354.436C197.04 354.436 191.798 352.89 189.701 353.86C187.603 354.83 183.304 372.393 191.195 381.646C199.085 390.9 225.378 404.269 243.282 397.558Z" fill="#BA68C8"/>
<path opacity="0.25" d="M243.282 397.558C247.337 386.103 247.722 373.67 244.383 361.986C238.904 341.88 231.092 333.308 222.599 333.308C220.282 333.211 217.992 333.838 216.047 335.101C214.102 336.365 212.599 338.203 211.746 340.359C211.746 340.359 202.781 336.925 199.164 340.936C195.546 344.947 197.04 354.436 197.04 354.436C197.04 354.436 191.798 352.89 189.701 353.86C187.603 354.83 183.304 372.393 191.195 381.646C199.085 390.9 225.378 404.269 243.282 397.558Z" fill="black"/>
<path d="M240.711 399.105C229.991 402.049 218.725 402.409 207.839 400.153C188.991 396.483 182.438 391.083 181.232 381.804C180.026 372.524 186.475 370.034 194.129 376.823C194.129 376.823 194.679 371.79 197.694 370.584C199.249 370.102 200.894 369.988 202.5 370.252C204.106 370.516 205.629 371.15 206.948 372.104C208.232 373.415 221.26 395.749 240.711 399.105Z" fill="#BA68C8"/>
<path opacity="0.15" d="M240.711 399.105C229.991 402.049 218.725 402.409 207.839 400.153C188.991 396.483 182.438 391.083 181.232 381.804C180.026 372.524 186.475 370.034 194.129 376.823C194.129 376.823 194.679 371.79 197.694 370.584C199.249 370.102 200.894 369.988 202.5 370.252C204.106 370.516 205.629 371.15 206.948 372.104C208.232 373.415 221.26 395.749 240.711 399.105Z" fill="black"/>
<path d="M245.453 390.978C250.468 383.595 253.83 375.217 255.31 366.416C256.961 353.309 254.497 342.404 247.157 345.89C247.157 345.89 246.948 340.517 242.648 339.652C238.349 338.787 229.148 349.377 229.542 360.361C229.935 371.344 245.453 390.978 245.453 390.978Z" fill="#BA68C8"/>
<path opacity="0.15" d="M245.453 390.978C250.468 383.595 253.83 375.217 255.31 366.416C256.961 353.309 254.497 342.404 247.157 345.89C247.157 345.89 246.948 340.517 242.648 339.652C238.349 338.787 229.148 349.377 229.542 360.361C229.935 371.344 245.453 390.978 245.453 390.978Z" fill="black"/>
<path d="M240.708 399.105C230.38 400.206 216.722 393.547 210.195 387.623C202.331 380.44 197.901 368.382 201.204 360.544C204.507 352.706 213.76 350.504 213.76 350.504C213.76 350.504 215.543 343.295 224.927 343.584C231.376 343.767 239.397 358.106 243.12 370.636C246.842 383.167 244.745 393.862 240.708 399.105Z" fill="#BA68C8"/>
<path d="M250.334 403.876C247.267 402.958 243.912 403.299 235.549 404.531C227.187 405.763 219.69 406.078 218.956 400.887C218.222 395.697 232.063 397.27 232.063 397.27C232.063 397.27 224.618 388.357 228.629 384.399C233.872 379.156 242.208 390.69 242.208 390.69C242.208 390.69 242.522 378.579 247.45 378.37C252.379 378.16 253.427 383.612 251.907 389.904C250.386 396.195 249.076 401.018 250.334 403.876Z" fill="#455A64"/>
<path d="M297.409 561.709L317.594 550.044C317.594 550.044 343.231 502.859 300.555 466.002C260.474 431.348 216.67 433.366 216.67 433.366C216.67 433.366 205.477 490.041 225.845 526.688C247.393 565.72 297.409 561.709 297.409 561.709Z" fill="#BA68C8"/>
<path opacity="0.5" d="M297.409 561.709L317.594 550.044C317.594 550.044 343.231 502.859 300.555 466.002C260.474 431.348 216.67 433.366 216.67 433.366C216.67 433.366 205.477 490.041 225.845 526.688C247.393 565.72 297.409 561.709 297.409 561.709Z" fill="white"/>
<path d="M307.504 557.122C307.212 557.121 306.929 557.019 306.704 556.832C306.48 556.645 306.327 556.387 306.272 556.1C293.715 486.554 248.339 454.547 229.413 444.009C229.269 443.933 229.142 443.828 229.04 443.701C228.938 443.574 228.863 443.428 228.818 443.271C228.774 443.114 228.763 442.95 228.784 442.789C228.805 442.627 228.858 442.472 228.941 442.331C229.101 442.047 229.366 441.836 229.679 441.743C229.992 441.65 230.329 441.682 230.619 441.833C249.86 452.555 295.996 485.06 308.736 555.654C308.783 555.98 308.702 556.31 308.512 556.579C308.322 556.847 308.036 557.032 307.714 557.096L307.504 557.122Z" fill="white"/>
<path d="M284.75 496.935C284.441 496.939 284.141 496.827 283.911 496.62C275.156 488.756 247.526 488.075 232.925 495.336C232.781 495.412 232.624 495.458 232.461 495.471C232.299 495.484 232.136 495.464 231.982 495.413C231.828 495.361 231.685 495.279 231.564 495.172C231.442 495.064 231.343 494.932 231.274 494.785C231.127 494.489 231.102 494.148 231.205 493.834C231.308 493.52 231.531 493.259 231.824 493.108C247.553 485.244 276.073 486.24 285.563 494.759C285.792 494.994 285.92 495.309 285.92 495.637C285.92 495.965 285.792 496.281 285.563 496.516C285.463 496.637 285.339 496.737 285.2 496.809C285.06 496.881 284.907 496.924 284.75 496.935Z" fill="white"/>
<path d="M173.209 397.715C172.494 396.474 171.346 395.541 169.985 395.094C169.208 394.847 168.388 394.769 167.579 394.864C166.77 394.959 165.991 395.225 165.292 395.644C164.116 396.594 163.294 397.913 162.961 399.388C162.628 400.863 162.803 402.408 163.458 403.771C162.56 402.55 161.282 401.664 159.825 401.251C158.367 400.838 156.814 400.922 155.41 401.49C154.731 401.917 154.148 402.48 153.697 403.143C153.245 403.806 152.936 404.555 152.788 405.344C152.513 406.739 152.765 408.187 153.496 409.407C155.829 413.339 162.75 414.099 164.978 414.466C166.716 414.714 168.466 414.863 170.221 414.912C171.105 413.344 171.876 411.714 172.528 410.036C173.209 407.86 175.595 401.647 173.209 397.715Z" fill="#BA68C8"/>
<path d="M110.317 40.1471C110.481 40.922 110.411 41.7281 110.117 42.4639C109.823 43.1996 109.318 43.8319 108.665 44.281C108.012 44.73 107.241 44.9756 106.449 44.9868C105.658 44.9981 104.881 44.7744 104.216 44.344C103.552 43.9136 103.031 43.2958 102.717 42.5686C102.404 41.8415 102.313 41.0376 102.457 40.2584C102.6 39.4792 102.971 38.7598 103.522 38.1908C104.074 37.6218 104.781 37.2288 105.555 37.0615C106.071 36.9469 106.604 36.9361 107.124 37.0296C107.644 37.1231 108.14 37.3192 108.583 37.6063C109.026 37.8934 109.408 38.2659 109.705 38.7022C110.003 39.1384 110.211 39.6295 110.317 40.1471Z" fill="#BA68C8"/>
<path d="M110.768 59.8993C110.932 60.6741 110.862 61.4803 110.568 62.216C110.274 62.9517 109.769 63.584 109.116 64.0331C108.463 64.4821 107.692 64.7278 106.901 64.739C106.109 64.7502 105.332 64.5265 104.668 64.0961C104.003 63.6657 103.482 63.0479 103.168 62.3208C102.855 61.5936 102.765 60.7897 102.908 60.0105C103.051 59.2314 103.422 58.5118 103.973 57.9428C104.525 57.3738 105.232 56.9809 106.006 56.8136C106.522 56.699 107.055 56.6881 107.575 56.7817C108.095 56.8752 108.591 57.0712 109.034 57.3584C109.477 57.6455 109.859 58.018 110.157 58.4542C110.454 58.8904 110.662 59.3817 110.768 59.8993Z" fill="#BA68C8"/>
<path d="M124.461 45.4853C124.613 46.1356 124.566 46.8166 124.327 47.4405C124.088 48.0645 123.668 48.6028 123.121 48.986C122.574 49.3693 121.925 49.5801 121.257 49.591C120.59 49.602 119.934 49.4128 119.376 49.0477C118.817 48.6826 118.381 48.1583 118.123 47.5425C117.865 46.9267 117.797 46.2476 117.929 45.5927C118.06 44.9377 118.385 44.3369 118.86 43.8677C119.336 43.3985 119.941 43.0824 120.598 42.9602C121.443 42.8027 122.317 42.9772 123.036 43.4475C123.756 43.9178 124.266 44.6476 124.461 45.4853Z" fill="#BA68C8"/>
<path d="M133.437 56.5897C133.583 57.2347 133.533 57.9088 133.293 58.5255C133.054 59.1423 132.636 59.6736 132.093 60.0514C131.549 60.4292 130.906 60.6362 130.245 60.646C129.584 60.6558 128.935 60.4678 128.382 60.1062C127.828 59.7447 127.396 59.2259 127.139 58.6165C126.883 58.0071 126.814 57.3348 126.942 56.6857C127.071 56.0367 127.389 55.4404 127.858 54.9734C128.327 54.5065 128.924 54.19 129.574 54.0646C130.42 53.8951 131.3 54.0647 132.022 54.5369C132.745 55.009 133.253 55.7461 133.437 56.5897Z" fill="#BA68C8"/>
<path d="M142.352 46.9394C142.504 47.5897 142.457 48.2707 142.218 48.8947C141.979 49.5186 141.559 50.0569 141.012 50.4402C140.465 50.8235 139.815 51.0342 139.148 51.0452C138.48 51.0562 137.825 50.8669 137.266 50.5018C136.708 50.1367 136.271 49.6125 136.013 48.9967C135.755 48.3809 135.688 47.7018 135.819 47.0468C135.951 46.3919 136.275 45.7911 136.751 45.3219C137.227 44.8527 137.832 44.5366 138.488 44.4144C139.335 44.251 140.211 44.423 140.932 44.8942C141.653 45.3654 142.162 46.0989 142.352 46.9394Z" fill="#BA68C8"/>
<path d="M8.38286 125.774C17.9514 97.8571 39.0546 75.6553 65.3765 62.2625C72.4564 58.6489 79.8757 55.7281 87.5284 53.5417C95.2964 51.0195 103.425 49.7582 111.597 49.807C111.597 49.807 111.722 49.8663 111.537 49.9303C104.739 51.7578 97.8252 52.7206 91.0801 54.6492C84.409 56.5212 77.8917 58.8947 71.5852 61.749C58.6432 67.5946 46.8827 75.7209 36.8795 85.7302C26.6429 96.0714 18.6772 108.392 13.4831 121.918C8.28908 135.443 5.97899 149.881 6.69808 164.324C7.20003 172.429 8.79498 180.431 11.4406 188.116C14.2925 195.746 18.2274 202.934 23.1271 209.466C24.0114 210.747 22.0579 212.551 20.8181 211.632C14.701 207.027 10.9957 199.52 8.36997 192.526C5.67639 185.277 3.91276 177.722 3.12034 170.037C1.62956 155.084 3.42471 139.985 8.38286 125.774Z" fill="#37474F"/>
<path d="M-43.4913 248.235C-33.3461 263.247 -0.592622 282.042 26.4331 279.708C56.8971 277.083 69.745 257.417 61.0174 247.15C48.6599 232.464 28.6291 254.349 1.83181 252.891C-30.0446 251.181 -39.2205 239.369 -39.2205 239.369L-43.4913 248.235Z" fill="#BA68C8"/>
<path opacity="0.2" d="M-43.4913 248.235C-33.3461 263.247 -0.592622 282.042 26.4331 279.708C56.8971 277.083 69.745 257.417 61.0174 247.15C48.6599 232.464 28.6291 254.349 1.83181 252.891C-30.0446 251.181 -39.2205 239.369 -39.2205 239.369L-43.4913 248.235Z" fill="white"/>
<path d="M-21.1768 259.602C6.11888 272.905 39.1588 267.299 53.384 254.847C53.598 254.653 53.7292 254.383 53.7503 254.093C53.7714 253.804 53.6807 253.517 53.4972 253.294C53.4045 253.186 53.2914 253.097 53.1645 253.033C53.0375 252.969 52.8993 252.932 52.7577 252.922C52.6162 252.912 52.4741 252.931 52.3397 252.977C52.2054 253.023 52.0815 253.096 51.9751 253.19C34.9938 268.053 -9.66571 271.673 -36.6322 246.349C-36.8425 246.15 -37.1222 246.043 -37.4107 246.051C-37.6992 246.058 -37.9731 246.18 -38.1729 246.39C-38.3654 246.608 -38.4667 246.892 -38.4554 247.183C-38.4442 247.475 -38.3213 247.75 -38.1125 247.952C-33.0806 252.67 -27.3713 256.598 -21.1768 259.602Z" fill="white"/>
<path d="M6.67889 218.503C6.59225 218.616 6.55056 218.758 6.56194 218.9C6.57331 219.043 6.63693 219.176 6.74041 219.274C26.2798 237.352 55.648 238.811 81.5348 222.987C81.663 222.906 81.7555 222.778 81.7934 222.63C81.8312 222.482 81.8115 222.325 81.7384 222.191C81.6543 222.063 81.5244 221.972 81.3757 221.938C81.2269 221.904 81.0708 221.929 80.9397 222.008C55.488 237.557 26.6818 236.142 7.52515 218.428C7.41034 218.324 7.2598 218.269 7.1055 218.275C6.95119 218.282 6.80527 218.348 6.69873 218.461L6.67889 218.503Z" fill="#455A64"/>
<path d="M65.0412 214.041C64.8877 214.305 64.7541 214.58 64.6414 214.863C63.7703 216.792 63.1892 218.837 62.9167 220.933C62.5394 224.967 60.891 228.783 58.2057 231.836C58.1458 231.908 58.107 231.995 58.0938 232.087C58.0806 232.179 58.0934 232.273 58.1308 232.358C58.1792 232.438 58.25 232.502 58.3346 232.542C58.4192 232.583 58.5139 232.598 58.607 232.586C64.2635 231.918 74.6062 226.647 75.0793 218.585C75.3775 213.456 72.5724 212.14 71.3637 211.74C70.1996 211.461 68.9781 211.531 67.853 211.941C66.728 212.35 65.7496 213.081 65.0412 214.041ZM60.0862 231.012C62.1089 228.051 63.3774 224.647 63.7827 221.094C64.0423 219.081 64.5931 217.117 65.4181 215.26C65.9433 214.275 66.7803 213.489 67.7998 213.024C68.8193 212.558 69.9644 212.439 71.0582 212.684C73.195 213.274 74.3252 215.411 74.1533 218.548C73.7016 225.936 64.6325 230.371 59.7121 231.466L60.0862 231.012Z" fill="#455A64"/>
<path d="M58.0902 231.802C58.0349 231.842 57.9905 231.895 57.9608 231.956C57.931 232.017 57.917 232.084 57.9199 232.152C57.9609 232.264 58.0448 232.356 58.1535 232.407C58.2623 232.459 58.3873 232.466 58.5017 232.428C63.6691 230.91 69.6881 223.396 70.4073 217.515C70.4242 217.396 70.3929 217.275 70.3199 217.179C70.247 217.083 70.1385 217.019 70.0181 217.002C69.8938 216.989 69.7693 217.024 69.6704 217.1C69.5715 217.175 69.506 217.286 69.4875 217.408C68.7505 223.483 62.6796 230.263 58.2412 231.545C58.1679 231.616 58.1156 231.705 58.0902 231.802Z" fill="#455A64"/>
<path d="M62.4169 230.593C62.3196 230.696 62.2571 230.826 62.2383 230.967C62.2703 231.095 62.3452 231.209 62.4504 231.288C62.5556 231.367 62.6846 231.407 62.8157 231.401C66.1986 230.999 72.7918 237.016 76.3895 241.143C77.4278 242.397 78.7406 243.391 80.2247 244.046C81.7088 244.7 83.3237 244.998 84.9423 244.916C85.9986 244.774 87.0026 244.366 87.861 243.728C88.7195 243.09 89.4046 242.243 89.8525 241.267C90.3203 240.311 90.4954 239.236 90.3556 238.18C90.2158 237.124 89.7673 236.134 89.0675 235.337C85.5145 230.746 75.1009 227.475 62.6486 230.374C62.5478 230.416 62.4656 230.494 62.4169 230.593ZM88.3602 241.846C87.9541 242.422 87.4303 242.903 86.8241 243.257C86.2179 243.611 85.5435 243.83 84.8468 243.898C83.3941 243.967 81.9459 243.695 80.6165 243.102C79.2871 242.509 78.1129 241.612 77.1867 240.482C76.8552 240.116 70.5207 232.869 65.4822 230.856C76.316 229.012 85.2047 231.976 88.3418 236.007C88.9175 236.652 89.2894 237.456 89.4102 238.317C89.531 239.177 89.3952 240.054 89.02 240.837C88.8411 241.199 88.6195 241.538 88.3602 241.846Z" fill="#455A64"/>
<path d="M62.449 230.563C62.3587 230.652 62.3025 230.77 62.2907 230.897C62.3042 231.035 62.3698 231.162 62.4737 231.251C62.5776 231.34 62.7116 231.385 62.8474 231.375C71.922 230.669 82.2376 236.407 84.6326 238.709C84.7305 238.807 84.8622 238.861 84.9993 238.861C85.1364 238.861 85.268 238.806 85.3659 238.708C85.4126 238.658 85.449 238.599 85.4729 238.535C85.4967 238.471 85.5076 238.402 85.5047 238.333C85.5018 238.265 85.4853 238.197 85.4562 238.135C85.4271 238.073 85.3859 238.018 85.3352 237.973C82.8574 235.578 72.1719 229.608 62.782 230.34C62.6483 230.371 62.5301 230.451 62.449 230.563Z" fill="#455A64"/>
<path d="M84.5341 203.727C83.0045 209.588 82.7904 215.715 83.907 221.666C91.0737 228.404 94.4746 230.782 101.702 232.971C103.482 233.404 105.338 233.429 107.13 233.044C107.79 232.861 108.36 232.441 108.732 231.865C109.103 231.289 109.251 230.597 109.146 229.92C108.749 228.937 108.011 228.129 107.067 227.646L99.1942 222.424C102.421 223.798 105.945 224.324 109.434 223.953C110.722 223.811 112.282 223.317 112.469 222.033C112.656 220.75 111.001 219.494 109.541 219.044C105.77 217.835 101.826 217.257 97.8657 217.331C101.627 215.394 105.062 212.879 108.045 209.876C108.384 209.613 108.658 209.275 108.845 208.888C109.031 208.501 109.126 208.076 109.12 207.647C108.855 206.196 106.795 206.093 105.388 206.483C102.132 207.368 99.0834 208.889 96.4175 210.959C99.3067 207.454 101.362 203.339 102.428 198.924C102.55 198.592 102.603 198.238 102.586 197.885C102.569 197.532 102.482 197.185 102.329 196.866C101.576 195.689 99.7201 196.27 98.6158 197.136C95.6898 199.481 93.3322 202.458 91.72 205.844C92.1594 203.512 92.666 197.828 90.8441 197.128C89.0223 196.427 85.4652 199.902 84.5341 203.727Z" fill="#BA68C8"/>
<path opacity="0.15" d="M84.5341 203.727C83.0045 209.588 82.7904 215.715 83.907 221.666C91.0737 228.404 94.4746 230.782 101.702 232.971C103.482 233.404 105.338 233.429 107.13 233.044C107.79 232.861 108.36 232.441 108.732 231.865C109.103 231.289 109.251 230.597 109.146 229.92C108.749 228.937 108.011 228.129 107.067 227.646L99.1942 222.424C102.421 223.798 105.945 224.324 109.434 223.953C110.722 223.811 112.282 223.317 112.469 222.033C112.656 220.75 111.001 219.494 109.541 219.044C105.77 217.835 101.826 217.257 97.8657 217.331C101.627 215.394 105.062 212.879 108.045 209.876C108.384 209.613 108.658 209.275 108.845 208.888C109.031 208.501 109.126 208.076 109.12 207.647C108.855 206.196 106.795 206.093 105.388 206.483C102.132 207.368 99.0834 208.889 96.4175 210.959C99.3067 207.454 101.362 203.339 102.428 198.924C102.55 198.592 102.603 198.238 102.586 197.885C102.569 197.532 102.482 197.185 102.329 196.866C101.576 195.689 99.7201 196.27 98.6158 197.136C95.6898 199.481 93.3322 202.458 91.72 205.844C92.1594 203.512 92.666 197.828 90.8441 197.128C89.0223 196.427 85.4652 199.902 84.5341 203.727Z" fill="black"/>
<path d="M80.3876 136.061C69.4572 136.368 58.911 140.151 50.2958 146.853C43.3383 152.011 37.3908 158.394 32.7485 165.685C31.8804 167.063 31.1011 168.494 30.4155 169.97C30.0842 170.915 29.6455 171.82 29.1078 172.666C28.9282 173.036 27.9831 173.04 27.8524 172.521C27.2728 170.036 29.1524 167.107 30.3767 165.056C32.5036 161.55 34.9575 158.251 37.7059 155.202C44.0801 147.677 52.2747 141.888 61.5176 138.382C67.5958 136.292 74.0039 135.315 80.431 135.499C80.6586 135.608 80.4682 135.948 80.2214 135.931L80.3876 136.061Z" fill="#455A64"/>
<path d="M62.1353 140.886C63.296 130.338 67.7174 120.411 74.7846 112.486C86.7357 98.7475 96.1406 94.9663 102.825 98.1866C104.686 98.9888 106.25 100.35 107.3 102.082C108.351 103.813 108.835 105.829 108.687 107.849C108.687 107.849 117.047 108.546 118.371 113.073C119.694 117.6 114.912 124.498 114.912 124.498C114.912 124.498 119.626 125.269 120.908 126.827C122.19 128.385 118.9 143.831 109.174 148.119C99.4487 152.406 73.6764 152.954 62.1353 140.886Z" fill="#BA68C8"/>
<path opacity="0.25" d="M62.1353 140.886C63.296 130.338 67.7174 120.411 74.7846 112.486C86.7357 98.7475 96.1406 94.9663 102.825 98.1866C104.686 98.9888 106.25 100.35 107.3 102.082C108.351 103.813 108.835 105.829 108.687 107.849C108.687 107.849 117.047 108.546 118.371 113.073C119.694 117.6 114.912 124.498 114.912 124.498C114.912 124.498 119.626 125.269 120.908 126.827C122.19 128.385 118.9 143.831 109.174 148.119C99.4487 152.406 73.6764 152.954 62.1353 140.886Z" fill="black"/>
<path d="M63.513 143.001C70.8076 149.409 79.5092 153.981 88.9029 156.343C105.078 160.618 112.263 158.846 116.723 151.972C121.183 145.099 117.067 140.676 108.491 143.127C108.491 143.127 109.965 138.941 108.057 136.84C107.02 135.868 105.772 135.151 104.412 134.748C103.053 134.346 101.618 134.267 100.222 134.519C98.7185 135.066 80.0417 147.754 63.513 143.001Z" fill="#BA68C8"/>
<path opacity="0.15" d="M63.513 143.001C70.8076 149.409 79.5092 153.981 88.9029 156.343C105.078 160.618 112.263 158.846 116.723 151.972C121.183 145.099 117.067 140.676 108.491 143.127C108.491 143.127 109.965 138.941 108.057 136.84C107.02 135.868 105.772 135.151 104.412 134.748C103.053 134.346 101.618 134.267 100.222 134.519C98.7185 135.066 80.0417 147.754 63.513 143.001Z" fill="black"/>
<path d="M63.0553 134.678C61.9079 126.99 62.4448 119.145 64.6293 111.679C68.3189 100.769 74.42 93.1425 78.8886 98.6519C78.8886 98.6519 81.1017 94.5141 84.8267 95.4597C88.5517 96.4052 91.7836 108.193 87.2881 116.663C82.7927 125.134 63.0553 134.678 63.0553 134.678Z" fill="#BA68C8"/>
<path opacity="0.15" d="M63.0553 134.678C61.9079 126.99 62.4448 119.145 64.6293 111.679C68.3189 100.769 74.42 93.1425 78.8886 98.6519C78.8886 98.6519 81.1017 94.5141 84.8267 95.4597C88.5517 96.4052 91.7836 108.193 87.2881 116.663C82.7927 125.134 63.0553 134.678 63.0553 134.678Z" fill="black"/>
<path d="M63.5616 143.001C71.2769 147.78 84.5638 147.72 91.9564 145.536C100.88 142.869 108.953 135.067 109.332 127.653C109.71 120.24 103.26 115.002 103.26 115.002C103.26 115.002 104.597 108.659 97.0966 105.33C91.9483 103.031 80.1801 111.265 72.485 119.706C64.79 128.147 62.3755 137.35 63.5616 143.001Z" fill="#BA68C8"/>
<path d="M54.1823 142.916C56.9403 143.358 59.4476 144.901 65.551 149.048C71.6545 153.195 77.4262 156.29 79.9721 152.479C82.5179 148.668 71.0453 144.65 71.0453 144.65C71.0453 144.65 80.2765 140.454 78.6266 135.812C76.496 129.689 65.57 135.612 65.57 135.612C65.57 135.612 69.9173 125.949 66.1244 123.912C62.3315 121.875 59.4391 125.773 58.247 131.308C57.0549 136.843 56.255 141.142 54.1823 142.916Z" fill="#455A64"/>
<path d="M-43.2901 248.275L-54.7165 231.438C-54.7165 231.438 -56.9007 184.627 -9.30946 171.902C35.4027 159.919 69.073 178.159 69.073 178.159C69.073 178.159 56.2868 226.931 26.3144 247.973C-5.49403 270.441 -43.2901 248.275 -43.2901 248.275Z" fill="#BA68C8"/>
<path opacity="0.5" d="M-43.2901 248.275L-54.7165 231.438C-54.7165 231.438 -56.9007 184.627 -9.30946 171.902C35.4027 159.919 69.073 178.159 69.073 178.159C69.073 178.159 56.2868 226.931 26.3144 247.973C-5.49403 270.441 -43.2901 248.275 -43.2901 248.275Z" fill="white"/>
<path d="M-49.5442 240.806C-49.3139 240.916 -49.0523 240.943 -48.8043 240.882C-48.5562 240.821 -48.3372 240.676 -48.1847 240.472C-11.7875 190.66 36.1302 182.774 55.0446 181.691C55.1869 181.686 55.3267 181.652 55.4554 181.591C55.5842 181.53 55.6993 181.444 55.7938 181.338C55.8882 181.231 55.9602 181.107 56.0052 180.972C56.0501 180.838 56.0673 180.695 56.0556 180.554C56.0379 180.269 55.91 180.003 55.699 179.811C55.488 179.62 55.2105 179.517 54.925 179.526C35.6931 180.633 -13.0129 188.621 -49.9543 239.186C-50.115 239.424 -50.1781 239.714 -50.1307 239.997C-50.0832 240.28 -49.9288 240.533 -49.6992 240.706L-49.5442 240.806Z" fill="white"/>
<path d="M-8.57535 202.247C-8.33513 202.369 -8.05847 202.395 -7.80034 202.319C2.02169 199.432 23.8854 209.484 32.556 220.848C32.6399 220.963 32.7459 221.06 32.8676 221.133C32.9894 221.205 33.1243 221.252 33.2644 221.271C33.4045 221.289 33.5469 221.278 33.6828 221.239C33.8188 221.2 33.9457 221.134 34.0557 221.044C34.2825 220.865 34.4311 220.603 34.4693 220.315C34.5075 220.026 34.4324 219.734 34.26 219.501C24.9361 207.226 2.25635 197.082 -8.3876 200.208C-8.65556 200.307 -8.87497 200.508 -8.9991 200.768C-9.12323 201.029 -9.14227 201.328 -9.05212 201.603C-9.02016 201.738 -8.96138 201.864 -8.87939 201.975C-8.79739 202.086 -8.69394 202.179 -8.57535 202.247Z" fill="white"/>
<path d="M116.689 167.685C117.723 166.982 118.98 166.685 120.219 166.851C120.922 166.953 121.596 167.203 122.196 167.586C122.795 167.968 123.306 168.474 123.695 169.069C124.258 170.264 124.401 171.614 124.101 172.9C123.802 174.186 123.077 175.334 122.044 176.157C123.213 175.539 124.555 175.328 125.856 175.558C127.158 175.788 128.346 176.445 129.233 177.426C129.604 178.02 129.848 178.685 129.95 179.378C130.052 180.071 130.01 180.777 129.826 181.453C129.511 182.655 128.762 183.698 127.723 184.379C124.394 186.582 118.669 184.546 116.779 183.987C115.32 183.52 113.889 182.971 112.492 182.342C112.394 180.772 112.408 179.198 112.535 177.631C112.828 175.661 113.318 169.868 116.689 167.685Z" fill="#BA68C8"/>
<g clip-path="url(#clip0_286_804)">
<path d="M167.83 240.979C157.538 232.552 196.326 208.863 187.495 202.801C159.191 183.357 184.479 134.212 190.615 119.208C191.248 117.631 185.63 112.494 187.608 108.965C188.906 106.664 192.152 105.775 193.405 105.875C198.705 106.318 280.958 152.977 280.958 152.977C280.793 154.344 283.252 162.222 275.54 163.083C271.965 163.475 267.851 161.344 267.398 162.478C264.932 168.764 235.627 209.824 198.289 211.01C189.061 211.309 194.616 228.615 176.384 241.992C172.865 244.568 168.021 241.135 167.83 240.979V240.979Z" stroke="black" stroke-width="2" stroke-miterlimit="10"/>
<path d="M201.501 199.113C204.915 196.805 229.193 198.112 235.893 182.168" stroke="black" stroke-width="2" stroke-miterlimit="10"/>
</g>
<path d="M80.6586 435.984C89.0934 450.983 119.606 409.683 107.577 398.532C86.7952 379.294 54.156 315.992 35.8194 320.2C22.1281 323.326 18.9497 336.191 18.9986 339.497C19.6343 373.944 61.0017 401.056 80.6586 435.984Z" stroke="black" stroke-width="2" stroke-miterlimit="10"/>
<path d="M101.046 428.048C101.046 432.918 112.61 435.984 110.336 443.769C102.61 470.22 42.4418 432.918 24.5941 450.472C18.2619 456.694 16.1593 473.226 25.7187 473.917C97.3783 479.087 88.1611 461.954 110.336 469.078C114.835 470.52 125.739 480.74 123.245 485.579C118.306 495.258 96.327 493.214 86.2541 489.968" stroke="black" stroke-width="2" stroke-miterlimit="10"/>
<path d="M95.0588 434.541C95.0588 434.541 39.1933 368.834 23.4727 340.399" stroke="black" stroke-width="2" stroke-miterlimit="10"/>
<path d="M101.979 424.953C101.979 424.953 47.5808 363.604 28.5352 335.349" stroke="black" stroke-width="2" stroke-miterlimit="10"/>
<path d="M108.678 414.312C108.678 414.312 65.2565 353.264 35.2578 329.849" stroke="black" stroke-width="2" stroke-miterlimit="10"/>
<defs>
<clipPath id="clip0_286_804">
<rect width="108.561" height="134.796" fill="white" transform="matrix(0.883239 0.468924 -0.515189 0.857077 190.367 102)"/>
</clipPath>
</defs>
</svg>
