<svg width="381" height="558" viewBox="0 0 381 558" fill="none" xmlns="http://www.w3.org/2000/svg">
<path d="M227.739 233.338C264.335 278.818 270.158 223.832 282.9 218.297C291.299 214.655 288.867 220.013 293.706 223.094C296.495 224.843 319.389 199.367 324.124 191.674C327.657 185.884 331.624 175.226 325.105 169.178C317.431 162.028 355.037 146.582 327.648 112.545C305.423 84.9242 287.355 118.619 280.723 117.625C272.943 116.462 276.828 109.181 270.571 111.545C258.837 115.944 242.446 141.75 239.266 149.447C236.899 155.137 245.375 157.877 243.105 164.064C234.457 187.677 192.295 189.332 227.738 233.38L227.739 233.338Z" stroke="black" stroke-width="2" stroke-miterlimit="10"/>
<path d="M240.48 187.731C232.055 199.396 217.974 211.312 231.622 228.443C241.215 240.492 251.799 234.565 254.989 230.706C276.113 205.155 322.204 150.631 324.223 138.244C326.798 122.32 319.357 112.905 307.805 113.988C298.111 114.91 261.296 158.869 240.497 187.711L240.48 187.731Z" stroke="black" stroke-width="2" stroke-miterlimit="10"/>
<path d="M354.904 240.778C354.212 241.41 353.703 242.233 353.441 243.145C353.179 244.056 353.176 245.015 353.433 245.9C353.689 246.784 354.193 247.556 354.881 248.116C355.569 248.676 356.41 249 357.299 249.047C358.187 249.094 359.083 248.862 359.872 248.38C360.662 247.898 361.31 247.188 361.735 246.339C362.16 245.491 362.343 244.541 362.261 243.612C362.178 242.682 361.834 241.813 361.272 241.115C360.9 240.647 360.439 240.267 359.915 239.996C359.392 239.725 358.818 239.569 358.225 239.538C357.632 239.507 357.034 239.6 356.463 239.813C355.893 240.026 355.363 240.354 354.904 240.778Z" fill="#BA68C8"/>
<path d="M340.527 258.858C339.835 259.49 339.326 260.314 339.064 261.225C338.802 262.137 338.799 263.095 339.056 263.98C339.312 264.865 339.816 265.636 340.504 266.196C341.192 266.756 342.033 267.08 342.922 267.127C343.81 267.174 344.706 266.942 345.495 266.46C346.285 265.978 346.933 265.268 347.358 264.42C347.783 263.571 347.966 262.622 347.884 261.692C347.801 260.762 347.457 259.893 346.895 259.195C346.523 258.727 346.062 258.347 345.538 258.076C345.015 257.805 344.441 257.65 343.848 257.618C343.255 257.587 342.657 257.68 342.086 257.893C341.516 258.106 340.986 258.434 340.527 258.858Z" fill="#BA68C8"/>
<path d="M338.324 235.636C337.731 236.157 337.29 236.844 337.059 237.61C336.828 238.375 336.816 239.184 337.026 239.933C337.236 240.681 337.658 241.334 338.237 241.808C338.816 242.282 339.526 242.554 340.276 242.591C341.025 242.627 341.779 242.426 342.442 242.013C343.104 241.6 343.643 240.994 343.991 240.272C344.339 239.551 344.478 238.748 344.392 237.967C344.306 237.186 343.997 236.462 343.507 235.889C342.875 235.151 341.983 234.713 341.018 234.666C340.053 234.619 339.088 234.966 338.324 235.636Z" fill="#BA68C8"/>
<path d="M322.352 239.571C321.767 240.09 321.335 240.773 321.109 241.532C320.884 242.291 320.876 243.093 321.086 243.833C321.296 244.573 321.715 245.218 322.29 245.686C322.864 246.155 323.567 246.424 324.309 246.46C325.051 246.496 325.798 246.298 326.455 245.89C327.111 245.482 327.647 244.883 327.993 244.17C328.34 243.457 328.481 242.662 328.399 241.888C328.318 241.113 328.016 240.395 327.534 239.823C326.909 239.073 326.017 238.626 325.048 238.579C324.079 238.531 323.111 238.888 322.352 239.571Z" fill="#BA68C8"/>
<path d="M321.113 224.208C320.52 224.729 320.079 225.416 319.848 226.182C319.617 226.947 319.605 227.756 319.815 228.505C320.025 229.253 320.447 229.906 321.026 230.38C321.605 230.854 322.315 231.126 323.064 231.163C323.814 231.199 324.568 230.998 325.23 230.585C325.892 230.172 326.432 229.566 326.78 228.844C327.127 228.123 327.267 227.321 327.181 226.539C327.094 225.758 326.786 225.034 326.295 224.461C325.667 223.717 324.775 223.274 323.808 223.227C322.841 223.18 321.874 223.532 321.113 224.208Z" fill="#BA68C8"/>
<path d="M384.688 392.275C395.869 359.069 393.255 323.475 380.088 292.752C376.554 284.477 372.251 276.634 367.24 269.334C362.364 261.634 356.306 254.895 349.304 249.379C349.304 249.379 349.156 249.351 349.27 249.537C353.8 255.912 359.029 261.539 363.444 267.975C367.836 274.306 371.749 281.012 375.149 288.034C382.136 302.433 386.534 318.209 388.13 334.589C389.695 351.445 387.952 368.648 383.01 385.116C378.069 401.584 370.037 416.961 359.418 430.281C353.374 437.689 346.471 444.254 338.891 449.801C331.173 455.154 322.838 459.349 314.135 462.259C312.493 462.882 312.909 465.936 314.603 465.902C323.01 465.663 331.37 461.007 338.454 456.108C345.773 451.011 352.511 444.987 358.511 438.179C370.141 424.897 379.07 409.238 384.688 392.275Z" fill="#37474F"/>
<path d="M346.263 543.914C326.576 551.113 283.974 545.981 261.424 524.687C236.002 500.69 238.388 472.825 253.454 469.164C274.892 463.838 277.369 498.891 302.393 516.398C332.142 537.246 348.701 532.425 348.701 532.425L346.263 543.914Z" fill="#BA68C8"/>
<path opacity="0.2" d="M346.263 543.914C326.576 551.113 283.974 545.981 261.424 524.687C236.002 500.69 238.388 472.825 253.454 469.164C274.892 463.838 277.369 498.891 302.393 516.398C332.142 537.246 348.701 532.425 348.701 532.425L346.263 543.914Z" fill="white"/>
<path d="M318.336 539.162C284.449 532.585 258.764 503.827 254.796 481.829C254.741 481.491 254.814 481.14 254.999 480.847C255.185 480.555 255.469 480.345 255.791 480.261C255.951 480.222 256.115 480.218 256.274 480.246C256.433 480.275 256.584 480.337 256.717 480.428C256.851 480.519 256.965 480.637 257.053 480.777C257.141 480.916 257.201 481.073 257.23 481.239C261.969 507.497 299.481 542.578 341.564 537.406C341.893 537.364 342.22 537.459 342.474 537.671C342.727 537.882 342.887 538.193 342.918 538.536C342.937 538.88 342.827 539.225 342.611 539.496C342.395 539.767 342.09 539.944 341.76 539.989C333.913 540.947 326.016 540.669 318.336 539.162Z" fill="white"/>
<path d="M321.881 480.492C321.878 480.663 321.814 480.831 321.702 480.961C321.591 481.092 321.44 481.176 321.278 481.198C291.037 484.989 263.865 465.686 252.079 432.038C252.023 431.868 252.031 431.678 252.103 431.508C252.174 431.337 252.303 431.199 252.464 431.12C252.63 431.055 252.81 431.059 252.966 431.13C253.123 431.202 253.244 431.336 253.305 431.506C264.898 464.581 291.539 483.528 321.181 479.823C321.357 479.802 321.53 479.855 321.663 479.97C321.796 480.085 321.878 480.253 321.893 480.438L321.881 480.492Z" fill="#455A64"/>
<path d="M272.616 434.796C272.564 435.154 272.486 435.509 272.385 435.858C271.788 438.302 270.859 440.658 269.629 442.852C267.134 446.975 265.888 451.757 266.068 456.52C266.069 456.629 266.042 456.739 265.989 456.836C265.936 456.933 265.859 457.015 265.767 457.071C265.67 457.114 265.564 457.127 265.463 457.108C265.362 457.089 265.27 457.038 265.198 456.963C260.791 452.454 255.564 440.329 260.791 432.282C264.119 427.164 267.455 427.823 268.777 428.267C269.974 428.796 270.978 429.699 271.661 430.861C272.344 432.023 272.676 433.392 272.616 434.796ZM265.024 454.443C265.351 450.223 266.636 446.095 268.771 442.414C269.953 440.308 270.852 438.049 271.439 435.706C271.675 434.404 271.503 433.078 270.95 431.935C270.397 430.791 269.494 429.893 268.38 429.38C266.126 428.484 263.659 429.758 261.615 432.88C256.84 440.266 261.554 450.719 265.028 455.135L265.024 454.443Z" fill="#455A64"/>
<path d="M266.26 456.56C266.279 456.635 266.28 456.716 266.264 456.794C266.247 456.873 266.212 456.947 266.163 457.009C266.051 457.089 265.916 457.119 265.789 457.095C265.661 457.071 265.55 456.993 265.479 456.878C262.146 451.918 262.231 440.645 265.683 434.531C265.751 434.406 265.861 434.311 265.989 434.269C266.117 434.226 266.253 434.239 266.367 434.304C266.482 434.376 266.563 434.494 266.595 434.633C266.626 434.773 266.606 434.923 266.537 435.052C262.967 441.364 263.432 451.971 266.309 456.211C266.323 456.328 266.306 456.449 266.26 456.56Z" fill="#455A64"/>
<path d="M263.273 452.102C263.287 452.27 263.249 452.442 263.166 452.592C263.046 452.694 262.899 452.751 262.749 452.754C262.599 452.757 262.456 452.704 262.343 452.606C259.616 449.824 249.464 451.021 243.325 452.494C241.508 452.981 239.633 453.02 237.845 452.609C236.058 452.197 234.407 451.346 233.024 450.122C232.184 449.237 231.58 448.13 231.269 446.902C230.958 445.674 230.95 444.366 231.245 443.099C231.508 441.838 232.116 440.668 232.992 439.738C233.868 438.809 234.971 438.163 236.161 437.881C242.59 435.924 254.192 440.101 263.223 451.724C263.282 451.837 263.3 451.971 263.273 452.102ZM232.162 444.718C232.115 445.565 232.239 446.404 232.527 447.177C232.815 447.95 233.261 448.639 233.833 449.198C235.078 450.292 236.561 451.051 238.167 451.413C239.773 451.776 241.456 451.733 243.085 451.287C243.64 451.166 254.436 448.589 260.356 450.19C252.017 440.738 241.991 437.34 236.331 439.046C235.359 439.268 234.456 439.788 233.737 440.54C233.017 441.292 232.515 442.242 232.292 443.269C232.194 443.748 232.151 444.234 232.162 444.718Z" fill="#455A64"/>
<path d="M263.383 452.234C263.401 452.387 263.368 452.545 263.288 452.679C263.178 452.805 263.029 452.883 262.873 452.896C262.716 452.91 262.564 452.857 262.449 452.749C254.803 445.49 241.465 443.709 237.679 444.255C237.522 444.28 237.365 444.239 237.242 444.139C237.119 444.04 237.04 443.891 237.022 443.723C237.015 443.64 237.024 443.556 237.048 443.475C237.073 443.394 237.112 443.318 237.163 443.252C237.214 443.186 237.277 443.132 237.347 443.091C237.417 443.051 237.494 443.026 237.571 443.018C241.497 442.441 255.331 444.26 263.243 451.773C263.341 451.9 263.39 452.064 263.383 452.234Z" fill="#455A64"/>
<path d="M262.088 410.97C259.284 417.674 255.137 423.721 249.944 428.676C238.88 430.193 234.209 430.123 226.311 427.216C224.44 426.399 222.792 425.136 221.491 423.522C221.041 422.888 220.837 422.089 220.918 421.276C220.999 420.464 221.359 419.695 221.931 419.116C222.976 418.445 224.195 418.179 225.366 418.368L235.978 418.802C232.172 417.887 228.703 415.949 225.901 413.171C224.869 412.141 223.849 410.583 224.592 409.218C225.336 407.852 227.679 407.791 229.28 408.37C233.448 409.823 237.323 412.001 240.749 414.82C238.815 410.346 237.578 405.541 237.083 400.581C236.971 400.093 236.97 399.577 237.079 399.075C237.189 398.573 237.407 398.099 237.715 397.689C238.975 396.476 240.857 397.806 241.818 399.158C244.052 402.268 245.654 405.847 246.531 409.69C246.473 404.311 247.579 398.923 249.767 393.933C249.896 393.529 250.099 393.151 250.364 392.823C250.629 392.495 250.951 392.222 251.311 392.021C252.806 391.41 254.025 393.256 254.382 394.856C255.293 399.143 255.257 403.645 254.277 408.024C255.542 405.473 259.119 399.65 261.215 400.239C263.311 400.828 263.977 406.641 262.088 410.97Z" fill="#BA68C8"/>
<path opacity="0.15" d="M262.088 410.97C259.284 417.674 255.137 423.721 249.944 428.676C238.88 430.193 234.209 430.123 226.311 427.216C224.44 426.399 222.792 425.136 221.491 423.522C221.041 422.888 220.837 422.089 220.918 421.276C220.999 420.464 221.359 419.695 221.931 419.116C222.976 418.445 224.195 418.179 225.366 418.368L235.978 418.802C232.172 417.887 228.703 415.949 225.901 413.171C224.869 412.141 223.849 410.583 224.592 409.218C225.336 407.852 227.679 407.791 229.28 408.37C233.448 409.823 237.323 412.001 240.749 414.82C238.815 410.346 237.578 405.541 237.083 400.581C236.971 400.093 236.97 399.577 237.079 399.075C237.189 398.573 237.407 398.099 237.715 397.689C238.975 396.476 240.857 397.806 241.818 399.158C244.052 402.268 245.654 405.847 246.531 409.69C246.473 404.311 247.579 398.923 249.767 393.933C249.896 393.529 250.099 393.151 250.364 392.823C250.629 392.495 250.951 392.222 251.311 392.021C252.806 391.41 254.025 393.256 254.382 394.856C255.293 399.143 255.257 403.645 254.277 408.024C255.542 405.473 259.119 399.65 261.215 400.239C263.311 400.828 263.977 406.641 262.088 410.97Z" fill="black"/>
<path d="M314.963 351.737C324.211 359.534 330.69 370.399 333.449 382.74C335.856 392.461 336.53 402.664 335.436 412.842C335.222 414.759 334.893 416.666 334.451 418.552C334.075 419.686 333.821 420.854 333.693 422.035C333.589 422.513 334.405 423.165 334.882 422.757C337.126 420.773 337.552 416.674 337.931 413.867C338.548 409.045 338.737 404.197 338.495 399.386C338.253 387.796 335.217 376.621 329.673 366.914C325.876 360.738 321.013 355.403 315.319 351.168C315.046 351.116 314.972 351.573 315.198 351.726L314.963 351.737Z" fill="#455A64"/>
<path d="M326.216 368.716C332.651 357.766 335.791 345.156 335.199 332.64C334.436 311.151 328.869 301.004 320.739 299.475C318.542 298.959 316.211 299.185 314.067 300.124C311.924 301.062 310.076 302.666 308.779 304.712C308.779 304.712 300.962 299.596 296.605 303.034C292.248 306.473 291.564 316.419 291.564 316.419C291.564 316.419 286.89 313.898 284.666 314.509C282.442 315.121 274.412 332.257 279.903 343.113C285.393 353.97 307.582 372.336 326.216 368.716Z" fill="#BA68C8"/>
<path opacity="0.25" d="M326.216 368.716C332.651 357.766 335.791 345.156 335.199 332.64C334.436 311.151 328.869 301.004 320.739 299.475C318.542 298.959 316.211 299.185 314.067 300.124C311.924 301.062 310.076 302.666 308.779 304.712C308.779 304.712 300.962 299.596 296.605 303.034C292.248 306.473 291.564 316.419 291.564 316.419C291.564 316.419 286.89 313.898 284.666 314.509C282.442 315.121 274.412 332.257 279.903 343.113C285.393 353.97 307.582 372.336 326.216 368.716Z" fill="black"/>
<path d="M323.936 369.65C312.904 370.737 301.926 369.053 291.905 364.737C274.502 357.506 269.379 350.73 270.303 340.921C271.227 331.112 278.025 329.716 283.899 338.128C283.899 338.128 285.565 333.027 288.753 332.331C290.365 332.117 291.982 332.299 293.476 332.865C294.97 333.431 296.3 334.364 297.36 335.59C298.307 337.179 305.878 362.634 323.936 369.65Z" fill="#BA68C8"/>
<path opacity="0.15" d="M323.936 369.65C312.904 370.737 301.926 369.053 291.905 364.737C274.502 357.506 269.379 350.73 270.303 340.921C271.227 331.112 278.025 329.716 283.899 338.128C283.899 338.128 285.565 333.027 288.753 332.331C290.365 332.117 291.982 332.299 293.476 332.865C294.97 333.431 296.3 334.364 297.36 335.59C298.307 337.179 305.878 362.634 323.936 369.65Z" fill="black"/>
<path d="M330.34 362.72C336.709 356.138 341.733 348.252 345.071 339.6C349.52 326.618 349.591 315.13 341.881 317.349C341.881 317.349 342.866 311.868 338.991 310.223C335.115 308.578 324.081 317.66 322.034 328.857C319.987 340.055 330.34 362.72 330.34 362.72Z" fill="#BA68C8"/>
<path opacity="0.15" d="M330.34 362.72C336.709 356.138 341.733 348.252 345.071 339.6C349.52 326.618 349.591 315.13 341.881 317.349C341.881 317.349 342.866 311.868 338.991 310.223C335.115 308.578 324.081 317.66 322.034 328.857C319.987 340.055 330.34 362.72 330.34 362.72Z" fill="black"/>
<path d="M323.616 369.806C313.505 369.07 301.941 359.836 297.024 352.631C291.11 343.905 289.56 330.832 294.458 323.446C299.356 316.059 308.685 315.481 308.685 315.481C308.685 315.481 311.991 308.462 320.891 310.442C327.01 311.788 331.482 327.829 332.251 341.255C333.02 354.681 328.638 365.194 323.616 369.806Z" fill="#BA68C8"/>
<path d="M332.526 376.429C329.781 374.934 326.476 374.676 318.154 374.425C309.832 374.175 302.548 373.141 303.004 367.689C303.461 362.236 316.426 366.353 316.426 366.353C316.426 366.353 311.26 355.871 316.006 352.54C322.225 348.116 327.662 361.445 327.662 361.445C327.662 361.445 330.678 349.09 335.467 349.767C340.255 350.443 340.043 356.221 337.17 362.394C334.298 368.567 331.956 373.273 332.526 376.429Z" fill="#455A64"/>
<path d="M345.845 544.399L367.835 536.348C367.835 536.348 402.735 493.324 369.489 448.013C338.273 405.417 295.568 399.285 295.568 399.285C295.568 399.285 272.563 454.62 284.327 495.555C296.716 539.126 345.845 544.399 345.845 544.399Z" fill="#BA68C8"/>
<path opacity="0.5" d="M345.845 544.399L367.835 536.348C367.835 536.348 402.735 493.324 369.489 448.013C338.273 405.417 295.568 399.285 295.568 399.285C295.568 399.285 272.563 454.62 284.327 495.555C296.716 539.126 345.845 544.399 345.845 544.399Z" fill="white"/>
<path d="M356.516 541.49C356.235 541.434 355.985 541.278 355.809 541.047C355.633 540.817 355.541 540.526 355.55 540.226C358.4 467.548 321.606 426.721 305.655 412.536C305.533 412.432 305.433 412.302 305.362 412.155C305.291 412.007 305.25 411.845 305.241 411.679C305.232 411.512 305.256 411.344 305.311 411.184C305.366 411.025 305.451 410.877 305.561 410.751C305.776 410.493 306.076 410.329 306.397 410.293C306.719 410.258 307.036 410.353 307.282 410.56C323.497 424.989 360.916 466.462 358.017 540.234C357.992 540.572 357.844 540.892 357.603 541.128C357.363 541.364 357.048 541.498 356.724 541.502L356.516 541.49Z" fill="white"/>
<path d="M347.648 476.598C347.345 476.543 347.077 476.369 346.898 476.11C340.063 466.236 313.236 460.223 297.398 464.985C297.241 465.036 297.077 465.054 296.916 465.037C296.755 465.019 296.6 464.967 296.461 464.884C296.321 464.801 296.2 464.688 296.105 464.553C296.009 464.417 295.942 464.261 295.906 464.095C295.827 463.758 295.877 463.397 296.046 463.09C296.215 462.783 296.489 462.554 296.809 462.452C313.878 457.278 341.507 463.79 348.915 474.488C349.088 474.776 349.144 475.129 349.073 475.471C349.001 475.813 348.807 476.117 348.533 476.317C348.409 476.425 348.267 476.505 348.114 476.554C347.962 476.602 347.803 476.617 347.648 476.598Z" fill="white"/>
<path d="M258.763 354.739C258.339 353.345 257.43 352.183 256.21 351.474C255.512 351.079 254.736 350.846 253.933 350.791C253.13 350.736 252.319 350.86 251.553 351.156C250.21 351.9 249.131 353.085 248.491 354.521C247.85 355.956 247.686 357.556 248.025 359.063C247.42 357.656 246.375 356.517 245.055 355.825C243.735 355.133 242.214 354.928 240.733 355.242C239.985 355.548 239.299 356.011 238.72 356.6C238.14 357.188 237.68 357.891 237.366 358.664C236.799 360.029 236.73 361.546 237.174 362.921C238.582 367.35 245.111 369.416 247.187 370.205C248.814 370.782 250.475 371.261 252.161 371.638C253.355 370.212 254.453 368.702 255.445 367.12C256.574 365.038 260.221 359.177 258.763 354.739Z" fill="#BA68C8"/>
<path d="M170.215 39.8488C170.37 40.6023 170.304 41.3863 170.025 42.1017C169.746 42.8172 169.266 43.4321 168.647 43.8688C168.027 44.3054 167.296 44.5442 166.544 44.5551C165.793 44.566 165.056 44.3484 164.425 43.9299C163.795 43.5113 163.3 42.9105 163.003 42.2034C162.705 41.4962 162.619 40.7145 162.755 39.9567C162.891 39.199 163.243 38.4994 163.766 37.9461C164.29 37.3928 164.961 37.0107 165.695 36.848C166.185 36.7366 166.691 36.7261 167.184 36.817C167.678 36.908 168.148 37.0987 168.569 37.3779C168.989 37.6572 169.352 38.0194 169.634 38.4436C169.917 38.8678 170.114 39.3455 170.215 39.8488Z" fill="#BA68C8"/>
<path d="M170.644 59.057C170.8 59.8105 170.734 60.5945 170.454 61.3099C170.175 62.0254 169.696 62.6402 169.076 63.0769C168.457 63.5135 167.725 63.7524 166.974 63.7633C166.223 63.7742 165.485 63.5566 164.855 63.138C164.225 62.7194 163.73 62.1187 163.432 61.4115C163.135 60.7044 163.049 59.9226 163.185 59.1649C163.321 58.4072 163.673 57.7075 164.196 57.1542C164.719 56.6009 165.391 56.2188 166.125 56.0561C166.615 55.9447 167.121 55.9342 167.614 56.0252C168.107 56.1161 168.578 56.3068 168.999 56.586C169.419 56.8653 169.781 57.2276 170.064 57.6518C170.346 58.076 170.544 58.5537 170.644 59.057Z" fill="#BA68C8"/>
<path d="M183.636 45.04C183.78 45.6724 183.736 46.3347 183.509 46.9414C183.282 47.5482 182.884 48.0716 182.365 48.4443C181.845 48.817 181.229 49.0219 180.596 49.0326C179.962 49.0432 179.34 48.8592 178.81 48.5041C178.28 48.149 177.866 47.6392 177.621 47.0404C177.376 46.4415 177.312 45.7811 177.437 45.1442C177.562 44.5073 177.87 43.923 178.321 43.4668C178.772 43.0105 179.347 42.7032 179.97 42.5843C180.772 42.4312 181.601 42.6009 182.284 43.0583C182.967 43.5156 183.451 44.2254 183.636 45.04Z" fill="#BA68C8"/>
<path d="M192.153 55.8386C192.291 56.4658 192.244 57.1214 192.016 57.7211C191.789 58.3209 191.392 58.8375 190.877 59.2049C190.361 59.5723 189.751 59.7736 189.123 59.7831C188.496 59.7925 187.88 59.6097 187.355 59.2581C186.83 58.9065 186.42 58.402 186.176 57.8093C185.933 57.2167 185.868 56.5629 185.989 55.9317C186.111 55.3006 186.413 54.7208 186.858 54.2667C187.303 53.8125 187.87 53.5048 188.486 53.3829C189.29 53.2181 190.124 53.3831 190.81 53.8423C191.495 54.3015 191.978 55.0182 192.153 55.8386Z" fill="#BA68C8"/>
<path d="M200.615 46.4538C200.759 47.0862 200.714 47.7485 200.488 48.3552C200.261 48.9619 199.862 49.4853 199.343 49.8579C198.824 50.2306 198.208 50.4354 197.574 50.4459C196.941 50.4565 196.319 50.2723 195.789 49.9171C195.259 49.5619 194.845 49.0521 194.6 48.4532C194.355 47.8543 194.291 47.1939 194.416 46.557C194.541 45.92 194.849 45.3358 195.3 44.8796C195.752 44.4235 196.326 44.1162 196.949 43.9974C197.752 43.8387 198.583 44.0062 199.267 44.4645C199.952 44.9229 200.435 45.6363 200.615 46.4538Z" fill="#BA68C8"/>
<path d="M170.215 39.8488C170.37 40.6023 170.304 41.3863 170.025 42.1017C169.746 42.8172 169.266 43.4321 168.647 43.8688C168.027 44.3054 167.296 44.5442 166.544 44.5551C165.793 44.566 165.056 44.3484 164.425 43.9299C163.795 43.5113 163.3 42.9105 163.003 42.2034C162.705 41.4962 162.619 40.7145 162.755 39.9567C162.891 39.199 163.243 38.4994 163.766 37.9461C164.29 37.3928 164.961 37.0107 165.695 36.848C166.185 36.7366 166.691 36.7261 167.184 36.817C167.678 36.908 168.148 37.0987 168.569 37.3779C168.989 37.6572 169.352 38.0194 169.634 38.4436C169.917 38.8678 170.114 39.3455 170.215 39.8488Z" fill="#BA68C8"/>
<path d="M170.644 59.057C170.8 59.8105 170.734 60.5945 170.454 61.3099C170.175 62.0254 169.696 62.6402 169.076 63.0769C168.457 63.5135 167.725 63.7524 166.974 63.7633C166.223 63.7742 165.485 63.5566 164.855 63.138C164.225 62.7194 163.73 62.1187 163.432 61.4115C163.135 60.7044 163.049 59.9226 163.185 59.1649C163.321 58.4072 163.673 57.7075 164.196 57.1542C164.719 56.6009 165.391 56.2188 166.125 56.0561C166.615 55.9447 167.121 55.9342 167.614 56.0252C168.107 56.1161 168.578 56.3068 168.999 56.586C169.419 56.8653 169.781 57.2276 170.064 57.6518C170.346 58.076 170.544 58.5537 170.644 59.057Z" fill="#BA68C8"/>
<path d="M183.636 45.04C183.78 45.6724 183.736 46.3347 183.509 46.9414C183.282 47.5482 182.884 48.0716 182.365 48.4443C181.845 48.817 181.229 49.0219 180.596 49.0326C179.962 49.0432 179.34 48.8592 178.81 48.5041C178.28 48.149 177.866 47.6392 177.621 47.0404C177.376 46.4415 177.312 45.7811 177.437 45.1442C177.562 44.5073 177.87 43.923 178.321 43.4668C178.772 43.0105 179.347 42.7032 179.97 42.5843C180.772 42.4312 181.601 42.6009 182.284 43.0583C182.967 43.5156 183.451 44.2254 183.636 45.04Z" fill="#BA68C8"/>
<path d="M192.153 55.8386C192.291 56.4658 192.244 57.1214 192.016 57.7211C191.789 58.3209 191.392 58.8375 190.877 59.2049C190.361 59.5723 189.751 59.7736 189.123 59.7831C188.496 59.7925 187.88 59.6097 187.355 59.2581C186.83 58.9065 186.42 58.402 186.176 57.8093C185.933 57.2167 185.868 56.5629 185.989 55.9317C186.111 55.3006 186.413 54.7208 186.858 54.2667C187.303 53.8125 187.87 53.5048 188.486 53.3829C189.29 53.2181 190.124 53.3831 190.81 53.8423C191.495 54.3015 191.978 55.0182 192.153 55.8386Z" fill="#BA68C8"/>
<path d="M200.615 46.4538C200.759 47.0862 200.714 47.7485 200.488 48.3552C200.261 48.9619 199.862 49.4853 199.343 49.8579C198.824 50.2306 198.208 50.4354 197.574 50.4459C196.941 50.4565 196.319 50.2723 195.789 49.9171C195.259 49.5619 194.845 49.0521 194.6 48.4532C194.355 47.8543 194.291 47.1939 194.416 46.557C194.541 45.92 194.849 45.3358 195.3 44.8796C195.752 44.4235 196.326 44.1162 196.949 43.9974C197.752 43.8387 198.583 44.0062 199.267 44.4645C199.952 44.9229 200.435 45.6363 200.615 46.4538Z" fill="#BA68C8"/>
<path d="M73.4808 123.116C82.5604 95.9686 102.587 74.3787 127.565 61.3555C134.284 57.8417 141.325 55.0015 148.587 52.8756C155.959 50.4231 163.672 49.1969 171.428 49.2447C171.428 49.2447 171.546 49.3023 171.371 49.3645C164.92 51.1414 158.359 52.0775 151.958 53.9528C145.627 55.773 139.442 58.0809 133.457 60.8563C121.176 66.5405 110.015 74.4428 100.523 84.1761C90.8085 94.2324 83.2495 106.214 78.3208 119.367C73.3921 132.52 71.2004 146.56 71.8832 160.606C72.3599 168.488 73.8737 176.269 76.3847 183.743C79.0913 191.163 82.8257 198.154 87.4758 204.506C88.315 205.752 86.4613 207.506 85.2846 206.612C79.4793 202.134 75.9629 194.833 73.4708 188.032C70.9144 180.982 69.2404 173.635 68.4882 166.161C67.0729 151.62 68.776 136.937 73.4808 123.116Z" fill="#37474F"/>
<path d="M24.2583 242.206C33.8862 256.805 64.9685 275.083 90.6148 272.814C119.524 270.263 131.716 251.139 123.433 241.155C111.706 226.873 92.698 248.154 67.2684 246.735C37.0188 245.071 28.311 233.585 28.311 233.585L24.2583 242.206Z" fill="#BA68C8"/>
<path opacity="0.2" d="M24.2583 242.206C33.8862 256.805 64.9685 275.083 90.6148 272.814C119.524 270.263 131.716 251.139 123.433 241.155C111.706 226.873 92.698 248.154 67.2684 246.735C37.0188 245.071 28.311 233.585 28.311 233.585L24.2583 242.206Z" fill="white"/>
<path d="M45.4363 253.261C71.3391 266.198 102.693 260.748 116.191 248.64C116.394 248.451 116.519 248.188 116.539 247.907C116.559 247.625 116.473 247.346 116.299 247.129C116.211 247.024 116.103 246.938 115.983 246.876C115.862 246.814 115.731 246.777 115.597 246.767C115.463 246.758 115.328 246.776 115.2 246.821C115.073 246.866 114.955 246.936 114.854 247.028C98.7401 261.481 56.3601 265 30.7693 240.373C30.5698 240.179 30.3043 240.075 30.0306 240.083C29.7568 240.09 29.4969 240.209 29.3073 240.413C29.1246 240.624 29.0285 240.901 29.0392 241.184C29.0499 241.467 29.1665 241.735 29.3646 241.931C34.1398 246.52 39.5578 250.339 45.4363 253.261Z" fill="white"/>
<path d="M71.8669 213.293C71.7847 213.403 71.7452 213.541 71.756 213.679C71.7668 213.818 71.8271 213.948 71.9253 214.043C90.468 231.624 118.337 233.043 142.902 217.657C143.024 217.577 143.112 217.453 143.148 217.309C143.184 217.165 143.165 217.013 143.095 216.883C143.016 216.758 142.892 216.67 142.751 216.637C142.61 216.603 142.462 216.628 142.338 216.704C118.185 231.824 90.8495 230.446 72.67 213.22C72.561 213.119 72.4182 213.066 72.2717 213.072C72.1253 213.078 71.9869 213.143 71.8858 213.252L71.8669 213.293Z" fill="#455A64"/>
<path d="M127.25 208.955C127.104 209.212 126.978 209.479 126.871 209.755C126.044 211.631 125.493 213.62 125.234 215.658C124.876 219.581 123.312 223.291 120.764 226.261C120.707 226.33 120.67 226.414 120.658 226.504C120.645 226.594 120.657 226.685 120.693 226.768C120.739 226.846 120.806 226.908 120.886 226.947C120.967 226.986 121.056 227.001 121.145 226.989C126.513 226.34 136.328 221.215 136.776 213.375C137.059 208.386 134.397 207.107 133.25 206.718C132.145 206.447 130.986 206.515 129.918 206.913C128.851 207.311 127.922 208.022 127.25 208.955ZM122.548 225.459C124.468 222.579 125.672 219.269 126.056 215.814C126.302 213.857 126.825 211.946 127.608 210.141C128.106 209.183 128.9 208.419 129.868 207.966C130.835 207.513 131.922 207.397 132.96 207.636C134.988 208.21 136.061 210.288 135.897 213.339C135.469 220.523 126.863 224.836 122.193 225.901L122.548 225.459Z" fill="#455A64"/>
<path d="M120.652 226.228C120.6 226.267 120.557 226.318 120.529 226.377C120.501 226.436 120.488 226.502 120.49 226.567C120.529 226.676 120.609 226.766 120.712 226.816C120.815 226.866 120.934 226.873 121.042 226.836C125.946 225.36 131.658 218.054 132.34 212.334C132.356 212.219 132.327 212.101 132.257 212.007C132.188 211.914 132.085 211.852 131.971 211.835C131.853 211.822 131.735 211.856 131.641 211.93C131.547 212.003 131.485 212.111 131.467 212.23C130.768 218.137 125.007 224.731 120.795 225.978C120.726 226.046 120.676 226.133 120.652 226.228Z" fill="#455A64"/>
<path d="M124.761 225.052C124.668 225.151 124.609 225.278 124.591 225.415C124.621 225.54 124.692 225.65 124.792 225.727C124.892 225.804 125.015 225.843 125.139 225.837C128.349 225.446 134.606 231.298 138.02 235.311C139.006 236.531 140.251 237.497 141.66 238.134C143.068 238.77 144.601 239.06 146.137 238.98C147.139 238.843 148.092 238.445 148.906 237.825C149.721 237.205 150.371 236.382 150.796 235.432C151.24 234.503 151.406 233.457 151.273 232.43C151.141 231.403 150.715 230.441 150.051 229.665C146.679 225.201 136.797 222.02 124.98 224.838C124.885 224.88 124.807 224.955 124.761 225.052ZM149.38 235.995C148.995 236.555 148.498 237.023 147.922 237.368C147.347 237.712 146.707 237.924 146.046 237.99C144.667 238.058 143.293 237.793 142.032 237.216C140.77 236.64 139.656 235.767 138.777 234.668C138.462 234.313 132.451 227.265 127.669 225.307C137.95 223.514 146.385 226.397 149.362 230.317C149.909 230.945 150.262 231.727 150.376 232.563C150.491 233.4 150.362 234.253 150.006 235.014C149.836 235.366 149.626 235.696 149.38 235.995Z" fill="#455A64"/>
<path d="M124.787 225.023C124.702 225.109 124.648 225.224 124.637 225.347C124.65 225.481 124.712 225.605 124.811 225.691C124.909 225.778 125.037 225.821 125.165 225.812C133.777 225.125 143.566 230.706 145.839 232.945C145.932 233.04 146.057 233.093 146.187 233.092C146.317 233.092 146.442 233.039 146.535 232.943C146.579 232.895 146.613 232.838 146.636 232.775C146.659 232.713 146.669 232.646 146.666 232.579C146.664 232.513 146.648 232.447 146.62 232.387C146.593 232.327 146.554 232.273 146.505 232.229C144.154 229.9 134.014 224.094 125.103 224.806C124.976 224.836 124.864 224.913 124.787 225.023Z" fill="#455A64"/>
<path d="M145.746 198.925C144.295 204.625 144.092 210.582 145.151 216.369C151.953 222.923 155.18 225.235 162.039 227.364C163.728 227.785 165.489 227.81 167.19 227.435C167.816 227.257 168.357 226.849 168.71 226.289C169.062 225.729 169.202 225.056 169.103 224.398C168.726 223.441 168.025 222.656 167.13 222.186L159.658 217.107C162.72 218.443 166.065 218.955 169.375 218.595C170.598 218.457 172.078 217.976 172.256 216.728C172.434 215.48 170.863 214.258 169.477 213.821C165.899 212.646 162.156 212.083 158.398 212.155C161.967 210.271 165.227 207.825 168.057 204.905C168.379 204.649 168.639 204.321 168.816 203.944C168.993 203.568 169.083 203.155 169.078 202.738C168.826 201.327 166.871 201.227 165.535 201.605C162.446 202.466 159.553 203.945 157.023 205.958C159.765 202.55 161.715 198.548 162.727 194.255C162.842 193.932 162.893 193.588 162.877 193.244C162.86 192.901 162.777 192.564 162.632 192.254C161.918 191.109 160.157 191.673 159.109 192.516C156.332 194.796 154.095 197.691 152.565 200.984C152.982 198.716 153.463 193.189 151.734 192.508C150.005 191.826 146.629 195.205 145.746 198.925Z" fill="#BA68C8"/>
<path opacity="0.15" d="M145.746 198.925C144.295 204.625 144.092 210.582 145.151 216.369C151.953 222.923 155.18 225.235 162.039 227.364C163.728 227.785 165.489 227.81 167.19 227.435C167.816 227.257 168.357 226.849 168.71 226.289C169.062 225.729 169.202 225.056 169.103 224.398C168.726 223.441 168.025 222.656 167.13 222.186L159.658 217.107C162.72 218.443 166.065 218.955 169.375 218.595C170.598 218.457 172.078 217.976 172.256 216.728C172.434 215.48 170.863 214.258 169.477 213.821C165.899 212.646 162.156 212.083 158.398 212.155C161.967 210.271 165.227 207.825 168.057 204.905C168.379 204.649 168.639 204.321 168.816 203.944C168.993 203.568 169.083 203.155 169.078 202.738C168.826 201.327 166.871 201.227 165.535 201.605C162.446 202.466 159.553 203.945 157.023 205.958C159.765 202.55 161.715 198.548 162.727 194.255C162.842 193.932 162.893 193.588 162.877 193.244C162.86 192.901 162.777 192.564 162.632 192.254C161.918 191.109 160.157 191.673 159.109 192.516C156.332 194.796 154.095 197.691 152.565 200.984C152.982 198.716 153.463 193.189 151.734 192.508C150.005 191.826 146.629 195.205 145.746 198.925Z" fill="black"/>
<path d="M141.813 133.124C131.441 133.422 121.433 137.1 113.257 143.617C106.655 148.633 101.011 154.84 96.6057 161.93C95.7819 163.27 95.0424 164.661 94.3918 166.097C94.0775 167.016 93.6612 167.895 93.151 168.718C92.9805 169.079 92.0836 169.082 91.9596 168.577C91.4095 166.161 93.1931 163.313 94.3549 161.318C96.3732 157.909 98.7018 154.7 101.31 151.735C107.359 144.418 115.135 138.789 123.906 135.38C129.674 133.348 135.755 132.398 141.855 132.576C142.071 132.682 141.89 133.013 141.656 132.997L141.813 133.124Z" fill="#455A64"/>
<path d="M124.493 137.813C125.594 127.556 129.79 117.902 136.496 110.196C147.837 96.8358 156.762 93.1592 163.105 96.2911C164.871 97.0713 166.355 98.3952 167.352 100.079C168.349 101.763 168.809 103.723 168.668 105.687C168.668 105.687 176.602 106.366 177.858 110.768C179.114 115.17 174.576 121.878 174.576 121.878C174.576 121.878 179.05 122.628 180.266 124.144C181.483 125.659 178.362 140.679 169.132 144.848C159.903 149.017 135.446 149.549 124.493 137.813Z" fill="#BA68C8"/>
<path opacity="0.25" d="M124.493 137.813C125.594 127.556 129.79 117.902 136.496 110.196C147.837 96.8358 156.762 93.1592 163.105 96.2911C164.871 97.0713 166.355 98.3952 167.352 100.079C168.349 101.763 168.809 103.723 168.668 105.687C168.668 105.687 176.602 106.366 177.858 110.768C179.114 115.17 174.576 121.878 174.576 121.878C174.576 121.878 179.05 122.628 180.266 124.144C181.483 125.659 178.362 140.679 169.132 144.848C159.903 149.017 135.446 149.549 124.493 137.813Z" fill="black"/>
<path d="M125.804 139.87C132.727 146.101 140.984 150.548 149.899 152.845C165.248 157.003 172.067 155.28 176.299 148.596C180.531 141.912 176.625 137.611 168.487 139.994C168.487 139.994 169.886 135.923 168.075 133.881C167.091 132.935 165.906 132.238 164.616 131.846C163.326 131.455 161.964 131.378 160.64 131.623C159.213 132.155 141.49 144.493 125.804 139.87Z" fill="#BA68C8"/>
<path opacity="0.15" d="M125.804 139.87C132.727 146.101 140.984 150.548 149.899 152.845C165.248 157.003 172.067 155.28 176.299 148.596C180.531 141.912 176.625 137.611 168.487 139.994C168.487 139.994 169.886 135.923 168.075 133.881C167.091 132.935 165.906 132.238 164.616 131.846C163.326 131.455 161.964 131.378 160.64 131.623C159.213 132.155 141.49 144.493 125.804 139.87Z" fill="black"/>
<path d="M125.365 131.777C124.276 124.3 124.785 116.671 126.858 109.411C130.359 98.8017 136.148 91.3853 140.389 96.7432C140.389 96.7432 142.489 92.7194 146.024 93.6391C149.559 94.5587 152.626 106.022 148.361 114.259C144.095 122.496 125.365 131.777 125.365 131.777Z" fill="#BA68C8"/>
<path opacity="0.15" d="M125.365 131.777C124.276 124.3 124.785 116.671 126.858 109.411C130.359 98.8017 136.148 91.3853 140.389 96.7432C140.389 96.7432 142.489 92.7194 146.024 93.6391C149.559 94.5587 152.626 106.022 148.361 114.259C144.095 122.496 125.365 131.777 125.365 131.777Z" fill="black"/>
<path d="M125.85 139.87C133.171 144.518 145.78 144.46 152.796 142.336C161.264 139.743 168.925 132.156 169.284 124.947C169.643 117.737 163.522 112.644 163.522 112.644C163.522 112.644 164.79 106.475 157.672 103.238C152.787 101.002 141.619 109.008 134.317 117.216C127.015 125.424 124.724 134.374 125.85 139.87Z" fill="#BA68C8"/>
<path d="M116.948 139.787C119.565 140.217 121.944 141.718 127.736 145.751C133.528 149.784 139.006 152.795 141.422 149.088C143.837 145.382 132.95 141.475 132.95 141.475C132.95 141.475 141.71 137.395 140.144 132.88C138.122 126.926 127.754 132.685 127.754 132.685C127.754 132.685 131.879 123.289 128.28 121.308C124.68 119.326 121.935 123.117 120.804 128.5C119.673 133.882 118.914 138.063 116.948 139.787Z" fill="#455A64"/>
<path d="M24.4519 242.245L13.608 225.871C13.608 225.871 11.534 180.35 56.6964 167.976C99.1267 156.325 131.079 174.063 131.079 174.063C131.079 174.063 118.947 221.493 90.5045 241.954C60.3199 263.802 24.4519 242.245 24.4519 242.245Z" fill="#BA68C8"/>
<path opacity="0.5" d="M24.4519 242.245L13.608 225.871C13.608 225.871 11.534 180.35 56.6964 167.976C99.1267 156.325 131.079 174.063 131.079 174.063C131.079 174.063 118.947 221.493 90.5045 241.954C60.3199 263.802 24.4519 242.245 24.4519 242.245Z" fill="white"/>
<path d="M18.5152 234.982C18.7337 235.089 18.982 235.115 19.2174 235.056C19.4528 234.997 19.6606 234.856 19.8053 234.657C54.344 186.218 99.8165 178.55 117.766 177.498C117.901 177.493 118.033 177.46 118.156 177.4C118.278 177.341 118.387 177.258 118.477 177.154C118.566 177.051 118.635 176.93 118.677 176.799C118.72 176.668 118.736 176.53 118.725 176.392C118.708 176.116 118.587 175.857 118.387 175.67C118.187 175.484 117.923 175.384 117.652 175.392C99.4017 176.468 53.1811 184.235 18.126 233.407C17.9735 233.638 17.9136 233.92 17.9587 234.195C18.0037 234.47 18.1502 234.717 18.3681 234.885L18.5152 234.982Z" fill="white"/>
<path d="M57.392 197.486C57.62 197.604 57.8825 197.629 58.1275 197.556C67.448 194.749 88.1959 204.524 96.4243 215.575C96.5038 215.687 96.6044 215.781 96.7199 215.852C96.8355 215.923 96.9636 215.968 97.0965 215.986C97.2295 216.004 97.3645 215.994 97.4936 215.956C97.6226 215.918 97.743 215.853 97.8474 215.766C98.0626 215.592 98.2036 215.337 98.2399 215.057C98.2761 214.776 98.2048 214.492 98.0412 214.265C89.1929 202.329 67.6707 192.464 57.5701 195.503C57.3159 195.599 57.1077 195.795 56.9899 196.048C56.8721 196.301 56.854 196.592 56.9396 196.859C56.9699 196.99 57.0257 197.113 57.1035 197.221C57.1813 197.329 57.2795 197.419 57.392 197.486Z" fill="white"/>
<path d="M176.265 163.875C177.246 163.191 178.439 162.903 179.615 163.064C180.283 163.163 180.922 163.407 181.491 163.779C182.06 164.151 182.545 164.643 182.914 165.222C183.448 166.383 183.584 167.696 183.299 168.947C183.015 170.198 182.327 171.314 181.347 172.114C182.456 171.513 183.729 171.308 184.965 171.532C186.2 171.755 187.328 172.395 188.169 173.349C188.521 173.926 188.753 174.573 188.85 175.247C188.946 175.92 188.906 176.608 188.732 177.265C188.433 178.434 187.722 179.447 186.737 180.11C183.578 182.252 178.145 180.272 176.351 179.728C174.967 179.274 173.608 178.74 172.282 178.128C172.189 176.602 172.203 175.071 172.324 173.547C172.601 171.631 173.067 165.998 176.265 163.875Z" fill="#BA68C8"/>
<path d="M189.029 319.487C191.839 317.115 198.048 335.386 198.048 335.386C198.048 335.386 152.682 411.076 148.975 457.09C148.351 464.693 127.538 468.061 124.948 462.448C107.3 424.165 24.7331 387.156 24.7331 387.156C24.7331 387.156 19.4384 357.703 24.1138 361.087C53.0482 382.01 150.128 352.471 189.036 319.516L189.029 319.487Z" stroke="black" stroke-width="2" stroke-miterlimit="10"/>
</svg>
