<svg width="116" height="60" viewBox="0 0 116 60" fill="none" xmlns="http://www.w3.org/2000/svg">
<path d="M104.625 44.0013C102.611 40.2371 103.212 41.3309 107.569 47.2601C109.871 51.1157 111.531 55.9854 108.015 58.0297C102.683 60.1885 100.276 56.0964 100.891 52.5565C101.657 48.1475 106.72 49.4083 104.625 44.0013Z" fill="url(#paint0_linear_101_344)"/>
<path d="M27.3203 21.0938C27.1406 21.0312 26.7578 21 26.1719 21H21.3906C20.9844 21 20.6602 20.9375 20.418 20.8125C20.1758 20.6797 20.0547 20.4414 20.0547 20.0977C20.0547 19.8477 20.1133 19.6484 20.2305 19.5C20.5273 19.5781 20.8125 19.6172 21.0859 19.6172C21.3594 19.6172 21.5742 19.5898 21.7305 19.5352C21.8867 19.4727 22.0234 19.3672 22.1406 19.2188C22.375 18.9062 22.4922 18.3867 22.4922 17.6602V5.67188C22.4688 5.125 22.2891 4.77734 21.9531 4.62891C21.8516 4.58203 21.7109 4.53906 21.5312 4.5C21.3594 4.46094 21.1875 4.42187 21.0156 4.38281C20.8516 4.33594 20.7109 4.28125 20.5938 4.21875C20.3594 4.09375 20.2422 3.92969 20.2422 3.72656C20.2422 3.35938 20.3047 3.09766 20.4297 2.94141C20.6094 3.00391 20.9961 3.03516 21.5898 3.03516H23.1133L27.2266 2.91797L27.7305 2.90625C30.1367 2.90625 31.9375 3.33594 33.1328 4.19531C34.3281 5.04688 34.9258 6.25 34.9258 7.80469C34.9258 8.96875 34.5469 10.0391 33.7891 11.0156C32.9453 12.1016 31.7812 12.8359 30.2969 13.2188C30.7031 13.5 31.1641 14.0156 31.6797 14.7656L32.9219 16.582C34.0859 18.2773 35.0508 19.125 35.8164 19.125C36.1055 19.125 36.3242 19.0977 36.4727 19.043L36.7656 18.9258C36.8281 18.9023 36.8984 18.8906 36.9766 18.8906C37.0547 18.8906 37.1367 18.9531 37.2227 19.0781C37.3086 19.1953 37.3516 19.332 37.3516 19.4883C37.3516 19.6445 37.2852 19.832 37.1523 20.0508C37.0195 20.2617 36.832 20.4531 36.5898 20.625C36.043 21.0234 35.4453 21.2227 34.7969 21.2227C34.1484 21.2227 33.6133 21.1133 33.1914 20.8945C32.7773 20.6758 32.3945 20.3906 32.043 20.0391C31.6992 19.6797 31.3828 19.2734 31.0938 18.8203C30.8125 18.3672 30.5469 17.9023 30.2969 17.4258L29.6055 16.0312C29.1133 15.0156 28.7188 14.3633 28.4219 14.0742C28.1328 13.7773 27.8672 13.6289 27.625 13.6289H26.4414C26.2461 13.6289 26.1484 13.4883 26.1484 13.207C26.1484 12.8164 26.2969 12.5117 26.5938 12.293C26.6953 12.2227 27 12.1836 27.5078 12.1758C28.0156 12.1602 28.5859 12.0508 29.2188 11.8477C29.8594 11.6445 30.3867 11.3672 30.8008 11.0156C31.6055 10.3203 32.0078 9.34375 32.0078 8.08594C32.0078 7.03125 31.6562 6.16797 30.9531 5.49609C30.1562 4.73828 29.0469 4.35156 27.625 4.33594C26.6875 4.33594 26.0625 4.47656 25.75 4.75781C25.4375 5.02344 25.2734 5.52734 25.2578 6.26953V18.2344C25.2578 18.8516 25.4297 19.2422 25.7734 19.4062C25.8828 19.4531 26.0273 19.4961 26.207 19.5352C26.3867 19.5742 26.5586 19.6172 26.7227 19.6641C26.8945 19.7031 27.0391 19.7539 27.1562 19.8164C27.3906 19.9414 27.5078 20.1094 27.5078 20.3203C27.5078 20.6797 27.4453 20.9375 27.3203 21.0938ZM38.6406 14.6953C38.6406 13.75 38.7383 12.9102 38.9336 12.1758C39.1289 11.4414 39.3906 10.7852 39.7188 10.207C40.0547 9.62109 40.4453 9.10938 40.8906 8.67188C41.3438 8.23438 41.8281 7.87109 42.3438 7.58203C43.3594 7.00391 44.3594 6.71484 45.3438 6.71484C46.3281 6.71484 47.1172 6.89062 47.7109 7.24219C48.3047 7.58594 48.7891 8.04688 49.1641 8.625C49.8594 9.72656 50.207 11.1914 50.207 13.0195C50.207 13.6992 49.9219 14.0469 49.3516 14.0625L41.1719 14.2383C41.2188 15.9336 41.6562 17.1875 42.4844 18C43.1875 18.6875 44.0977 19.0312 45.2148 19.0312C46.8789 19.0312 48.2305 18.6836 49.2695 17.9883C49.3398 17.9883 49.4258 18.0469 49.5273 18.1641C49.7227 18.3984 49.8203 18.6016 49.8203 18.7734C49.8203 19.1484 49.3516 19.6289 48.4141 20.2148C47.3359 20.8867 46.0781 21.2227 44.6406 21.2227C42.7656 21.2227 41.293 20.625 40.2227 19.4297C39.168 18.2578 38.6406 16.6797 38.6406 14.6953ZM41.2422 12.7266C43.4922 12.6172 45.5508 12.4727 47.418 12.293C47.5039 9.80859 46.6445 8.56641 44.8398 8.56641C43.832 8.56641 43.0078 8.95703 42.3672 9.73828C41.7812 10.457 41.4062 11.4531 41.2422 12.7266ZM40.1055 2.625C39.9492 2.54687 39.8711 2.42188 39.8711 2.25C39.8711 2.07031 39.9336 1.86719 40.0586 1.64062C40.1914 1.40625 40.3555 1.1875 40.5508 0.984375C41.0352 0.507812 41.4922 0.269531 41.9219 0.269531C42.1562 0.269531 42.3594 0.355469 42.5312 0.527344L46.2695 4.26562C46.3242 4.32031 46.3516 4.38672 46.3516 4.46484C46.3516 4.54297 46.3281 4.625 46.2812 4.71094C46.2344 4.78906 46.168 4.86719 46.082 4.94531C45.8867 5.125 45.6758 5.21484 45.4492 5.21484L40.1055 2.625ZM57.332 16.3242C57.0352 16.6211 56.8867 16.9102 56.8867 17.1914C56.8867 17.4727 56.9688 17.6875 57.1328 17.8359C57.2969 17.9766 57.5117 18.0859 57.7773 18.1641C58.1836 18.2734 58.6328 18.3281 59.125 18.3281H60.1328C62.6797 18.3281 64.3555 18.9375 65.1602 20.1562C65.457 20.6094 65.6055 21.1602 65.6055 21.8086C65.6055 22.4648 65.4961 23.0391 65.2773 23.5312C65.0586 24.0234 64.7656 24.457 64.3984 24.832C64.0312 25.2148 63.6055 25.543 63.1211 25.8164C62.6367 26.0898 62.125 26.3125 61.5859 26.4844C60.5312 26.8359 59.5469 27.0117 58.6328 27.0117C57.7188 27.0117 56.918 26.9375 56.2305 26.7891C55.5508 26.6484 54.9453 26.4258 54.4141 26.1211C53.2656 25.457 52.6914 24.5039 52.6914 23.2617C52.6914 22.207 53.2188 21.2617 54.2734 20.4258C54.5938 20.1758 54.9336 19.9531 55.293 19.7578C54.8711 19.4062 54.6602 18.9336 54.6602 18.3398C54.6602 17.4102 55.1211 16.6289 56.043 15.9961C54.6914 15.4805 53.8047 14.5586 53.3828 13.2305C53.25 12.793 53.1836 12.3047 53.1836 11.7656C53.1836 11.2266 53.2656 10.7188 53.4297 10.2422C53.6016 9.76562 53.832 9.33984 54.1211 8.96484C54.418 8.58984 54.7617 8.26172 55.1523 7.98047C55.543 7.69922 55.9609 7.46484 56.4062 7.27734C57.2812 6.90234 58.1992 6.71484 59.1602 6.71484C60.7461 6.71484 62.0117 7.11328 62.957 7.91016C63.0586 7.51953 63.1094 7.11719 63.1094 6.70312C63.1094 6.28906 63.0195 5.95312 62.8398 5.69531C63.1445 5.33594 63.5977 5.15625 64.1992 5.15625C64.543 5.15625 64.8164 5.25 65.0195 5.4375C65.4102 5.77344 65.6055 6.10937 65.6055 6.44531C65.6055 6.77344 65.5547 7.0625 65.4531 7.3125C65.3516 7.55469 65.2188 7.78516 65.0547 8.00391C64.7656 8.41016 64.3906 8.77734 63.9297 9.10547C64.2422 9.69141 64.3984 10.3711 64.3984 11.1445C64.3984 11.9102 64.2266 12.625 63.8828 13.2891C63.5469 13.9453 63.0938 14.5039 62.5234 14.9648C61.3516 15.9102 59.9062 16.3828 58.1875 16.3828C57.9531 16.3828 57.668 16.3633 57.332 16.3242ZM56.7578 13.8281C57.0391 14.1016 57.3594 14.3047 57.7188 14.4375C58.0781 14.5703 58.4609 14.6367 58.8672 14.6367C59.2812 14.6367 59.668 14.5781 60.0273 14.4609C60.3945 14.3438 60.7109 14.1719 60.9766 13.9453C61.5469 13.4609 61.832 12.7734 61.832 11.8828C61.832 10.8984 61.5781 10.0781 61.0703 9.42188C60.4922 8.69531 59.6797 8.33203 58.6328 8.33203C57.3125 8.33203 56.457 8.87109 56.0664 9.94922C55.9336 10.3164 55.8672 10.7695 55.8672 11.3086C55.8672 11.8477 55.9453 12.332 56.1016 12.7617C56.2656 13.1914 56.4844 13.5469 56.7578 13.8281ZM56.7695 20.4492C55.7461 21.1445 55.2344 21.9336 55.2344 22.8164C55.2344 23.582 55.6797 24.1641 56.5703 24.5625C57.2812 24.8906 58.1562 25.0547 59.1953 25.0547C60.1406 25.0547 61.0156 24.8984 61.8203 24.5859C62.875 24.1719 63.4023 23.4961 63.4023 22.5586C63.4023 21.3008 62.3828 20.6719 60.3438 20.6719L59.3008 20.6836C58.2383 20.6836 57.3945 20.6055 56.7695 20.4492ZM69.5195 21C68.3242 21 67.7266 20.7266 67.7266 20.1797C67.7266 19.8906 67.7852 19.6719 67.9023 19.5234C68.0898 19.5859 68.2656 19.6172 68.4297 19.6172C69.1094 19.6172 69.4609 19.207 69.4844 18.3867V3.71484C69.4844 3.16797 69.4297 2.82031 69.3203 2.67188C69.1406 2.42188 68.8516 2.29688 68.4531 2.29688C68.2734 2.29688 68.0977 2.31641 67.9258 2.35547C67.7617 2.38672 67.6445 2.38672 67.5742 2.35547C67.5117 2.31641 67.4609 2.26562 67.4219 2.20312C67.2656 1.94531 67.4609 1.61719 68.0078 1.21875C68.8672 0.585938 69.7148 0.269531 70.5508 0.269531C71.4414 0.269531 71.9414 0.75 72.0508 1.71094C72.082 2 72.0977 2.30469 72.0977 2.625V18.4336C72.1211 19.043 72.3438 19.418 72.7656 19.5586C72.8906 19.5977 73.0352 19.6328 73.1992 19.6641C73.3711 19.6953 73.5273 19.7344 73.668 19.7812C73.8086 19.8203 73.918 19.8672 73.9961 19.9219C74.1289 20.0234 74.1953 20.1875 74.1953 20.4141C74.1953 20.6875 74.1328 20.9023 74.0078 21.0586C73.8516 21.0195 73.6016 21 73.2578 21H69.5195ZM75.8594 14.6953C75.8594 13.75 75.957 12.9102 76.1523 12.1758C76.3477 11.4414 76.6094 10.7852 76.9375 10.207C77.2734 9.62109 77.6641 9.10938 78.1094 8.67188C78.5625 8.23438 79.0469 7.87109 79.5625 7.58203C80.5781 7.00391 81.5781 6.71484 82.5625 6.71484C83.5469 6.71484 84.3359 6.89062 84.9297 7.24219C85.5234 7.58594 86.0078 8.04688 86.3828 8.625C87.0781 9.72656 87.4258 11.1914 87.4258 13.0195C87.4258 13.6992 87.1406 14.0469 86.5703 14.0625L78.3906 14.2383C78.4375 15.9336 78.875 17.1875 79.7031 18C80.4062 18.6875 81.3164 19.0312 82.4336 19.0312C84.0977 19.0312 85.4492 18.6836 86.4883 17.9883C86.5586 17.9883 86.6445 18.0469 86.7461 18.1641C86.9414 18.3984 87.0391 18.6016 87.0391 18.7734C87.0391 19.1484 86.5703 19.6289 85.6328 20.2148C84.5547 20.8867 83.2969 21.2227 81.8594 21.2227C79.9844 21.2227 78.5117 20.625 77.4414 19.4297C76.3867 18.2578 75.8594 16.6797 75.8594 14.6953ZM78.4609 12.7266C80.7109 12.6172 82.7695 12.4727 84.6367 12.293C84.7227 9.80859 83.8633 8.56641 82.0586 8.56641C81.0508 8.56641 80.2266 8.95703 79.5859 9.73828C79 10.457 78.625 11.4531 78.4609 12.7266ZM6.17969 38.0078L6.16797 41.0898C6.16797 42.3789 6.23438 43.1562 6.36719 43.4219C6.5 43.6797 6.65625 43.8359 6.83594 43.8906C7.01562 43.9375 7.24609 43.9609 7.52734 43.9609C7.80859 43.9609 8.0625 43.9414 8.28906 43.9023C8.52344 43.8555 8.74219 43.7969 8.94531 43.7266C9.14844 43.6562 9.34375 43.5781 9.53125 43.4922L10.1055 43.2461C10.2383 43.1992 10.3867 43.3359 10.5508 43.6562C10.5977 43.7422 10.6211 43.8438 10.6211 43.9609C10.6211 44.0703 10.5742 44.2148 10.4805 44.3945C10.3867 44.5742 10.2031 44.7812 9.92969 45.0156C9.66406 45.2422 9.35156 45.4453 8.99219 45.625C8.21094 46.0234 7.50781 46.2227 6.88281 46.2227C6.26562 46.2227 5.76172 46.1875 5.37109 46.1172C4.98047 46.0469 4.64844 45.9062 4.375 45.6953C3.8125 45.2578 3.53125 44.457 3.53125 43.293V34.0703H2.37109C2.12891 34.0703 1.95312 33.9922 1.84375 33.8359C1.65625 33.5938 1.5625 33.3906 1.5625 33.2266C1.5625 32.9531 1.62891 32.8008 1.76172 32.7695C3.00391 32.5586 3.88281 31.6367 4.39844 30.0039C4.54688 29.5117 4.66406 28.9297 4.75 28.2578C5.125 28.1953 5.40625 28.1641 5.59375 28.1641C5.78906 28.1641 5.95703 28.2617 6.09766 28.457C6.23828 28.6523 6.30469 28.8789 6.29688 29.1367C6.29688 29.3945 6.29297 29.6367 6.28516 29.8633C6.27734 30.0898 6.26953 30.3359 6.26172 30.6016L6.21484 32.2422H10.2695C10.3711 32.4219 10.4219 32.6133 10.4219 32.8164V33.1797C10.4219 33.5078 10.2461 33.7773 9.89453 33.9883C9.54297 34.1914 9.15234 34.293 8.72266 34.293C8.30078 34.293 7.99609 34.2891 7.80859 34.2812C7.62891 34.2656 7.45312 34.25 7.28125 34.2344L6.76562 34.1641C6.58594 34.1484 6.39453 34.1328 6.19141 34.1172V34.2461L6.17969 38.0078ZM12.4492 39.5312C12.4492 38.5781 12.543 37.7227 12.7305 36.9648C12.918 36.207 13.1758 35.5391 13.5039 34.9609C13.832 34.3828 14.2188 33.8906 14.6641 33.4844C15.1094 33.0703 15.5859 32.7344 16.0938 32.4766C17.0859 31.9688 18.1758 31.7148 19.3633 31.7148C20.8867 31.7148 22.1797 32.2695 23.2422 33.3789C24.4219 34.5977 25.0117 36.207 25.0117 38.207C25.0117 40.832 24.2969 42.875 22.8672 44.3359C21.625 45.5938 20.1367 46.2227 18.4023 46.2227C16.5898 46.2227 15.1367 45.5859 14.043 44.3125C12.9805 43.0859 12.4492 41.4922 12.4492 39.5312ZM19.0938 44.3125C19.6172 44.3125 20.0859 44.1914 20.5 43.9492C20.9141 43.6992 21.2656 43.3594 21.5547 42.9297C22.1328 42.0391 22.4219 40.8828 22.4219 39.4609C22.4219 37.8984 22.1172 36.5703 21.5078 35.4766C20.8203 34.2188 19.832 33.5898 18.543 33.5898C17.5039 33.5898 16.6719 33.9883 16.0469 34.7852C15.3828 35.6289 15.0508 36.8086 15.0508 38.3242C15.0508 40.2227 15.4688 41.7227 16.3047 42.8242C17.0547 43.8164 17.9844 44.3125 19.0938 44.3125ZM33.7422 46.0586C33.5859 46.0195 33.3359 46 32.9922 46H29.2539C28.5039 46 28.0234 45.8672 27.8125 45.6016C27.7266 45.5 27.6836 45.3828 27.6836 45.25C27.6836 44.9219 27.7461 44.6797 27.8711 44.5234C28.0586 44.5859 28.2695 44.6172 28.5039 44.6172C28.7461 44.6172 28.9258 44.5195 29.043 44.3242C29.168 44.1289 29.2266 43.7656 29.2188 43.2344V35.5703C29.2188 34.8359 29.082 34.3789 28.8086 34.1992C28.6992 34.1289 28.5547 34.0938 28.375 34.0938C28.1953 34.0938 28.0508 34.1211 27.9414 34.1758C27.8398 34.2305 27.7539 34.2695 27.6836 34.293C27.6211 34.3164 27.5664 34.3164 27.5195 34.293C27.4727 34.2617 27.4258 34.2188 27.3789 34.1641C27.2617 34.0391 27.2031 33.9102 27.2031 33.7773C27.2031 33.6367 27.25 33.4922 27.3438 33.3438C27.4453 33.1875 27.6055 33.0117 27.8242 32.8164C28.043 32.6133 28.293 32.4297 28.5742 32.2656C29.207 31.8984 29.8398 31.7148 30.4727 31.7148C31.1992 31.7148 31.6289 32.1953 31.7617 33.1562C31.8008 33.4375 31.8242 33.7266 31.832 34.0234C32.9961 33.0469 34.2617 32.3516 35.6289 31.9375C36.1211 31.7891 36.6172 31.7148 37.1172 31.7148C37.625 31.7148 38.1055 31.7812 38.5586 31.9141C39.0195 32.0469 39.418 32.2617 39.7539 32.5586C40.4648 33.1836 40.8203 34.1602 40.8203 35.4883V43.4336C40.8438 44.043 41.0703 44.418 41.5 44.5586C41.6172 44.5977 41.7617 44.6328 41.9336 44.6641C42.1055 44.6953 42.2578 44.7344 42.3906 44.7812C42.5312 44.8203 42.6406 44.8672 42.7188 44.9219C42.8516 45.0234 42.918 45.1875 42.918 45.4141C42.918 45.6875 42.8555 45.9023 42.7305 46.0586C42.5742 46.0195 42.3242 46 41.9805 46H38.2422C37.4922 46 37.0117 45.8672 36.8008 45.6016C36.7148 45.5 36.6719 45.3828 36.6719 45.25C36.6719 44.9219 36.7344 44.6797 36.8594 44.5234C37.0469 44.5859 37.2188 44.6172 37.375 44.6172C37.5391 44.6172 37.6758 44.5977 37.7852 44.5586C37.8945 44.5117 37.9805 44.4375 38.043 44.3359C38.1523 44.1484 38.207 43.7812 38.207 43.2344V36.3203C38.207 34.9922 37.8125 34.25 37.0234 34.0938C36.7812 34.0469 36.4766 34.0234 36.1094 34.0234C35.75 34.0234 35.3516 34.0781 34.9141 34.1875C34.4766 34.2969 34.0664 34.4375 33.6836 34.6094C32.9492 34.9375 32.332 35.3516 31.832 35.8516V43.4336C31.8555 44.043 32.0781 44.418 32.5 44.5586C32.625 44.5977 32.7695 44.6328 32.9336 44.6641C33.1055 44.6953 33.2617 44.7344 33.4023 44.7812C33.543 44.8203 33.6523 44.8672 33.7305 44.9219C33.8633 45.0234 33.9297 45.1875 33.9297 45.4141C33.9297 45.6875 33.8672 45.9023 33.7422 46.0586ZM61.5391 35.9922L61.5508 35.5703C61.5508 35.4219 61.5156 35.1719 61.4453 34.8203C61.375 34.4609 61.1484 34.168 60.7656 33.9414C60.3906 33.7148 59.9102 33.6016 59.3242 33.6016C58.7461 33.6016 58.2305 33.75 57.7773 34.0469C57.332 34.3359 56.9688 34.7266 56.6875 35.2188C56.1562 36.1562 55.8906 37.4102 55.8906 38.9805C55.8906 40.4648 56.25 41.6719 56.9688 42.6016C57.7031 43.5547 58.6719 44.0312 59.875 44.0312C60.9688 44.0312 62.0156 43.7305 63.0156 43.1289C63.2578 42.9805 63.4453 42.8516 63.5781 42.7422C63.6562 42.7422 63.7461 42.8047 63.8477 42.9297C64.043 43.1562 64.1406 43.3398 64.1406 43.4805C64.1406 43.6133 64.0859 43.7695 63.9766 43.9492C63.8672 44.1211 63.707 44.3086 63.4961 44.5117C63.293 44.707 63.0469 44.9062 62.7578 45.1094C62.4688 45.3125 62.1445 45.4961 61.7852 45.6602C60.9648 46.0352 60.125 46.2227 59.2656 46.2227C58.4062 46.2227 57.6016 46.0781 56.8516 45.7891C56.1094 45.4922 55.4688 45.0586 54.9297 44.4883C53.7734 43.2773 53.1953 41.6133 53.1953 39.4961C53.1953 37.0898 53.9297 35.1562 55.3984 33.6953C56.7344 32.375 58.2773 31.7148 60.0273 31.7148C61.1758 31.7148 62.1328 31.9609 62.8984 32.4531C63.7031 32.9688 64.1055 33.6484 64.1055 34.4922C64.1055 34.9531 64.0039 35.3008 63.8008 35.5352C63.4492 35.9492 63.0391 36.1562 62.5703 36.1562C62.1094 36.1562 61.7656 36.1016 61.5391 35.9922ZM65.8516 33.6016L65.6055 33.6484C65.4336 33.6484 65.3125 33.5312 65.2422 33.2969C65.2188 33.2344 65.207 33.1445 65.207 33.0273C65.207 32.9102 65.2734 32.7656 65.4062 32.5938C65.5391 32.4219 65.7109 32.2734 65.9219 32.1484C66.3906 31.8594 66.8867 31.7148 67.4102 31.7148C67.8242 31.7148 68.1211 31.7734 68.3008 31.8906C68.6523 32.1094 68.9258 32.5547 69.1211 33.2266L72.6953 43.5977C73.4297 41.9648 73.9336 40.8086 74.207 40.1289L74.9219 38.3125C75.5859 36.5312 75.918 35.3711 75.918 34.832C75.918 34.2852 75.8242 33.8867 75.6367 33.6367C75.4492 33.3867 75.125 33.2383 74.6641 33.1914C74.5781 33.0977 74.5352 32.9727 74.5352 32.8164C74.5352 32.6523 74.6055 32.5039 74.7461 32.3711C74.8945 32.2305 75.0859 32.1094 75.3203 32.0078C75.7969 31.8125 76.2852 31.7148 76.7852 31.7148C77.293 31.7148 77.6523 31.7422 77.8633 31.7969C78.0742 31.8438 78.2422 31.9258 78.3672 32.043C78.6094 32.2617 78.7305 32.668 78.7305 33.2617C78.7305 33.793 78.3125 35.1953 77.4766 37.4688C76.6953 39.5 76.1094 40.9727 75.7188 41.8867C74.2812 45.0898 73.1992 47.332 72.4727 48.6133C71.7461 49.8945 71.0586 50.7812 70.4102 51.2734C69.7617 51.7734 69.0781 52.0234 68.3594 52.0234C67.6406 52.0234 67.0977 51.8672 66.7305 51.5547C66.3633 51.25 66.1797 50.8281 66.1797 50.2891C66.1797 49.8828 66.2812 49.5781 66.4844 49.375C66.8672 48.9922 67.2734 48.8438 67.7031 48.9297C67.7734 49.5156 68.125 49.8086 68.7578 49.8086C69.3281 49.8086 69.8398 49.4375 70.293 48.6953C70.5039 48.3438 70.7109 47.9336 70.9141 47.4648L71.5938 45.9531L71.8281 45.4727C71.375 45.4102 70.9922 45.1875 70.6797 44.8047C70.5547 44.6562 70.4531 44.4688 70.375 44.2422L67.0938 35.6289L66.8125 34.9375C66.4531 34.0469 66.1328 33.6016 65.8516 33.6016ZM88.9375 35.9922L88.9492 35.5703C88.9492 35.4219 88.9141 35.1719 88.8438 34.8203C88.7734 34.4609 88.5469 34.168 88.1641 33.9414C87.7891 33.7148 87.3086 33.6016 86.7227 33.6016C86.1445 33.6016 85.6289 33.75 85.1758 34.0469C84.7305 34.3359 84.3672 34.7266 84.0859 35.2188C83.5547 36.1562 83.2891 37.4102 83.2891 38.9805C83.2891 40.4648 83.6484 41.6719 84.3672 42.6016C85.1016 43.5547 86.0703 44.0312 87.2734 44.0312C88.3672 44.0312 89.4141 43.7305 90.4141 43.1289C90.6562 42.9805 90.8438 42.8516 90.9766 42.7422C91.0547 42.7422 91.1445 42.8047 91.2461 42.9297C91.4414 43.1562 91.5391 43.3398 91.5391 43.4805C91.5391 43.6133 91.4844 43.7695 91.375 43.9492C91.2656 44.1211 91.1055 44.3086 90.8945 44.5117C90.6914 44.707 90.4453 44.9062 90.1562 45.1094C89.8672 45.3125 89.543 45.4961 89.1836 45.6602C88.3633 46.0352 87.5234 46.2227 86.6641 46.2227C85.8047 46.2227 85 46.0781 84.25 45.7891C83.5078 45.4922 82.8672 45.0586 82.3281 44.4883C81.1719 43.2773 80.5938 41.6133 80.5938 39.4961C80.5938 37.0898 81.3281 35.1562 82.7969 33.6953C84.1328 32.375 85.6758 31.7148 87.4258 31.7148C88.5742 31.7148 89.5312 31.9609 90.2969 32.4531C91.1016 32.9688 91.5039 33.6484 91.5039 34.4922C91.5039 34.9531 91.4023 35.3008 91.1992 35.5352C90.8477 35.9492 90.4375 36.1562 89.9688 36.1562C89.5078 36.1562 89.1641 36.1016 88.9375 35.9922ZM95.8633 46C94.668 46 94.0703 45.7266 94.0703 45.1797C94.0703 44.8906 94.1289 44.6719 94.2461 44.5234C94.4336 44.5859 94.6094 44.6172 94.7734 44.6172C95.4531 44.6172 95.8047 44.207 95.8281 43.3867V28.7148C95.8281 28.168 95.7734 27.8203 95.6641 27.6719C95.4844 27.4219 95.1953 27.2969 94.7969 27.2969C94.6172 27.2969 94.4414 27.3164 94.2695 27.3555C94.1055 27.3867 93.9883 27.3867 93.918 27.3555C93.8555 27.3164 93.8047 27.2656 93.7656 27.2031C93.6094 26.9453 93.8047 26.6172 94.3516 26.2188C95.2109 25.5859 96.0586 25.2695 96.8945 25.2695C97.7852 25.2695 98.2852 25.75 98.3945 26.7109C98.4258 27 98.4414 27.3047 98.4414 27.625V43.4336C98.4648 44.043 98.6875 44.418 99.1094 44.5586C99.2344 44.5977 99.3789 44.6328 99.543 44.6641C99.7148 44.6953 99.8711 44.7344 100.012 44.7812C100.152 44.8203 100.262 44.8672 100.34 44.9219C100.473 45.0234 100.539 45.1875 100.539 45.4141C100.539 45.6875 100.477 45.9023 100.352 46.0586C100.195 46.0195 99.9453 46 99.6016 46H95.8633ZM102.203 39.6953C102.203 38.75 102.301 37.9102 102.496 37.1758C102.691 36.4414 102.953 35.7852 103.281 35.207C103.617 34.6211 104.008 34.1094 104.453 33.6719C104.906 33.2344 105.391 32.8711 105.906 32.582C106.922 32.0039 107.922 31.7148 108.906 31.7148C109.891 31.7148 110.68 31.8906 111.273 32.2422C111.867 32.5859 112.352 33.0469 112.727 33.625C113.422 34.7266 113.77 36.1914 113.77 38.0195C113.77 38.6992 113.484 39.0469 112.914 39.0625L104.734 39.2383C104.781 40.9336 105.219 42.1875 106.047 43C106.75 43.6875 107.66 44.0312 108.777 44.0312C110.441 44.0312 111.793 43.6836 112.832 42.9883C112.902 42.9883 112.988 43.0469 113.09 43.1641C113.285 43.3984 113.383 43.6016 113.383 43.7734C113.383 44.1484 112.914 44.6289 111.977 45.2148C110.898 45.8867 109.641 46.2227 108.203 46.2227C106.328 46.2227 104.855 45.625 103.785 44.4297C102.73 43.2578 102.203 41.6797 102.203 39.6953ZM104.805 37.7266C107.055 37.6172 109.113 37.4727 110.98 37.293C111.066 34.8086 110.207 33.5664 108.402 33.5664C107.395 33.5664 106.57 33.957 105.93 34.7383C105.344 35.457 104.969 36.4531 104.805 37.7266Z" fill="black"/>
<defs>
<linearGradient id="paint0_linear_101_344" x1="98.3191" y1="36.9479" x2="108.761" y2="64.4846" gradientUnits="userSpaceOnUse">
<stop stop-color="#BA68C8"/>
<stop offset="0.96875" stop-color="#DDB3E3" stop-opacity="0"/>
</linearGradient>
</defs>
</svg>
